<svg width="39" height="43" viewBox="0 0 39 43" fill="none" xmlns="http://www.w3.org/2000/svg">
<path d="M22.6363 33.5786C28.6771 33.5786 31.6983 33.5786 33.5742 31.5559C35.4516 29.535 35.4516 26.2801 35.4516 19.7721C35.4516 13.264 35.4516 10.0092 33.5742 7.98823C31.6983 5.96558 28.6771 5.96558 22.6363 5.96558H16.2286C10.1878 5.96558 7.16662 5.96558 5.29077 7.98823C3.41333 10.0092 3.41333 13.264 3.41333 19.7721C3.41333 26.2801 3.41333 29.535 5.29077 31.5559C6.33682 32.6846 7.7385 33.1834 9.82099 33.4025" stroke="black" stroke-width="2" stroke-linecap="round" stroke-linejoin="round"/>
<path d="M22.6364 33.5786C20.6564 33.5786 18.4746 34.4415 16.4834 35.5546C13.2828 37.3443 11.6825 38.24 10.8944 37.6687C10.1062 37.0992 10.2552 35.3303 10.5548 31.7941L10.622 30.9899" stroke="black" stroke-width="2" stroke-linecap="round"/>
</svg>
