<svg width="40" height="43" viewBox="0 0 40 43" fill="none" xmlns="http://www.w3.org/2000/svg">
<path d="M11.4029 7.863H16.952C17.2564 7.8631 17.5494 7.98768 17.7718 8.21157C17.9942 8.43545 18.1295 8.74195 18.1502 9.06914C18.171 9.39632 18.0757 9.71979 17.8836 9.97418C17.6915 10.2286 17.4169 10.3949 17.1154 10.4396L16.952 10.4517H11.4029C10.4899 10.4516 9.61083 10.8247 8.9433 11.4958C8.27577 12.1669 7.86953 13.086 7.80663 14.0673L7.79862 14.3348V30.73C7.79892 31.7136 8.1457 32.6605 8.76892 33.3793C9.39214 34.0982 10.2454 34.5354 11.1562 34.6027L11.4029 34.6131H26.6211C27.5344 34.6132 28.4137 34.2398 29.0813 33.5683C29.7488 32.8969 30.1549 31.9774 30.2174 30.9958L30.2254 30.73V29.8706C30.2223 29.5403 30.3365 29.2212 30.5446 28.9787C30.7528 28.7362 31.0391 28.5885 31.345 28.566C31.6508 28.5435 31.9531 28.6479 32.1899 28.8577C32.4267 29.0675 32.5801 29.3668 32.6187 29.6945L32.6283 29.8706V30.73C32.628 32.3865 32.0382 33.9798 30.9803 35.1818C29.9223 36.3839 28.4769 37.1031 26.9415 37.1914L26.6211 37.2018H11.4029C9.86484 37.2019 8.38529 36.5664 7.26917 35.4263C6.15304 34.2861 5.48538 32.7282 5.40376 31.0734L5.39575 30.7283V14.3331C5.39602 12.6766 5.98585 11.0833 7.04378 9.88125C8.1017 8.67922 9.54718 7.95998 11.0825 7.87163L11.4029 7.863H16.952H11.4029ZM23.8226 12.212V7.43155C23.8224 7.19346 23.8833 6.95995 23.9983 6.7567C24.1134 6.55345 24.2783 6.38833 24.4749 6.2795C24.6714 6.17068 24.892 6.12237 25.1124 6.13989C25.3328 6.15741 25.5444 6.24008 25.724 6.3788L25.8554 6.49616L35.4573 16.4196C35.9058 16.8838 35.9475 17.6276 35.5806 18.1419L35.4573 18.2886L25.8554 28.2155C25.696 28.3805 25.4973 28.4949 25.2814 28.5461C25.0655 28.5973 24.8407 28.5833 24.6317 28.5057C24.4226 28.428 24.2376 28.2898 24.0968 28.1062C23.956 27.9225 23.865 27.7006 23.8338 27.4648L23.8226 27.2801V22.5773L23.2715 22.629C19.4269 23.0605 15.7425 24.9261 12.1959 28.2552C11.3629 29.037 10.0765 28.2983 10.2143 27.1196C11.278 17.9383 15.7345 12.8799 23.342 12.2448L23.8226 12.2103V7.43155V12.212ZM26.2254 10.4638V13.4719C26.2254 13.8152 26.0989 14.1444 25.8736 14.3871C25.6482 14.6299 25.3426 14.7662 25.024 14.7662C18.8182 14.7662 14.9736 17.6587 13.3108 23.6663L13.1843 24.146L13.7481 23.737C17.3348 21.2156 21.0961 19.9437 25.0256 19.9437C25.3162 19.9438 25.5969 20.0573 25.8157 20.2632C26.0346 20.4691 26.1767 20.7535 26.2158 21.0637L26.227 21.238V24.2461L32.8894 17.355L26.2254 10.4655V10.4638Z" fill="black"/>
</svg>
