<svg width="302" height="378" viewBox="0 0 302 378" fill="none" xmlns="http://www.w3.org/2000/svg">
<path d="M2 2C2 0.895429 2.89543 0 4 0H300C301.105 0 302 0.895431 302 2V298C302 299.105 301.105 300 300 300H4C2.89543 300 2 299.105 2 298V2Z" fill="#FF0000"/>
<path fill-rule="evenodd" clip-rule="evenodd" d="M81 256.5C79.8954 256.5 79 255.605 79 254.5V49.7C79 48.5954 79.8954 47.7 81 47.7H118.496C119.36 47.7 120.126 48.2549 120.396 49.0757L148.923 135.896L151.373 144.013C151.948 145.917 154.649 145.906 155.207 143.996L157.572 135.912L186.416 49.0696C186.687 48.2519 187.452 47.7 188.314 47.7H225.8C226.905 47.7 227.8 48.5954 227.8 49.7V254.5C227.8 255.605 226.905 256.5 225.8 256.5H193.8C192.695 256.5 191.8 255.605 191.8 254.5V152.1C191.8 147.22 191.902 141.654 192.103 135.407L192.106 135.316V135.316C192.14 134.779 191.387 134.621 191.202 135.127L166.479 202.985C166.191 203.774 165.44 204.3 164.6 204.3H140.98C140.134 204.3 139.38 203.768 139.096 202.972L114.895 135.103C114.679 134.498 113.774 134.671 113.794 135.313V135.313C114.196 141.567 114.4 147.166 114.4 152.1V254.5C114.4 255.605 113.505 256.5 112.4 256.5H81Z" fill="white"/>
<g filter="url(#filter0_dddddddd_2_4)">
<path d="M35.1787 366.33C34.6514 366.33 34.1826 366.096 33.7725 365.627C33.3916 365.158 33.2012 364.66 33.2012 364.133C33.2012 363.547 33.2598 362.683 33.377 361.54C33.4941 360.368 33.5527 359.489 33.5527 358.903C33.5527 357.79 33.4062 356.076 33.1133 353.762C32.872 351.722 32.6226 350.446 32.3649 349.933C32.2507 349.706 31.9854 349.743 31.8449 349.955C31.4751 350.513 30.8578 351.885 29.9932 354.069C28.6162 357.614 27.5176 360.163 26.6973 361.716C25.2324 364.411 23.8994 365.759 22.6982 365.759C21.2041 365.759 19.5049 364.147 17.6006 360.925C16.3994 358.61 15.1836 356.311 13.9531 354.025C13.7773 353.703 13.5723 353.542 13.3379 353.542C13.1328 353.542 12.9863 353.659 12.8984 353.894C12.6348 354.714 12.415 355.812 12.2393 357.189C11.9756 359.182 11.8291 360.28 11.7998 360.485C11.624 361.394 11.4043 362.727 11.1406 364.484C11.082 364.982 10.9795 365.7 10.833 366.638C10.4521 368.22 9.83691 369.011 8.9873 369.011C8.45996 369.011 7.97656 368.762 7.53711 368.264C7.09766 367.795 6.89258 367.312 6.92188 366.813V366.506C6.98047 365.832 7.15625 363.723 7.44922 360.178C7.6543 357.6 7.75684 355.476 7.75684 353.806C7.75684 347.083 6.78731 341.135 4.84827 335.963C4.73976 335.674 4.66998 335.352 4.80677 335.074C5.01961 334.643 5.49027 334.295 6.21875 334.03C6.92188 333.796 7.68359 333.679 8.50391 333.679C10.7891 333.679 12.166 334.338 12.6348 335.656C12.9863 336.594 13.2061 337.839 13.2939 339.392C13.3818 341.384 13.4697 342.629 13.5576 343.127C13.9385 345.178 15.0078 348.137 16.7656 352.004C18.8457 356.604 20.5742 358.903 21.9512 358.903C23.5625 358.903 25.335 355.49 27.2686 348.664C27.7553 346.975 28.7457 342.823 30.2397 336.209C30.3086 335.904 30.2965 335.589 30.1883 335.295C30.0708 334.977 29.8886 334.497 29.6416 333.854C29.29 332.946 29.1143 332.36 29.1143 332.097C29.1143 331.423 29.6562 330.925 30.7402 330.603C31.502 330.368 32.3369 330.251 33.2451 330.251C35.5303 330.251 36.8926 330.837 37.332 332.009C37.7422 333.063 38.0938 335.144 38.3867 338.249C38.6211 340.915 38.7383 343.098 38.7383 344.797C38.7383 346.994 38.3574 351.901 37.5957 359.519C37.5371 360.485 37.3613 361.95 37.0684 363.913C36.6582 365.524 36.0283 366.33 35.1787 366.33Z" fill="white" fill-opacity="0.9" shape-rendering="crispEdges"/>
<path d="M81.7958 361.619C81.956 361.913 82.0402 362.243 82.0402 362.577C82.0402 362.612 82.0402 362.648 82.0402 362.683C82.0402 363.474 81.8645 364.191 81.5129 364.836C81.0734 365.568 80.4729 365.935 79.7111 365.935C79.0959 365.935 78.5539 365.451 78.0852 364.484C77.7629 363.723 77.4406 362.961 77.1184 362.199C76.9124 361.787 76.6273 361.183 76.2629 360.387C76.1604 360.162 76.01 359.963 75.8219 359.804L75.7977 359.784C75.6256 359.638 75.4234 359.532 75.2056 359.474V359.474C74.9893 359.417 74.761 359.408 74.5407 359.448C67.739 360.682 63.6031 361.775 62.133 362.727C61.6936 363.02 61.093 364.016 60.3312 365.715C59.716 367.092 58.8371 367.78 57.6945 367.78C57.0793 367.78 56.5373 367.546 56.0686 367.077C55.6291 366.608 55.4094 366.066 55.4094 365.451C55.4094 364.982 55.717 364.25 56.3322 363.254C56.801 362.551 57.2697 361.848 57.7385 361.145C62.7482 352.736 65.883 345.412 67.1428 339.172C67.3772 337.941 67.4943 335.861 67.4943 332.932C67.4943 331.848 68.5051 331.306 70.5266 331.306C72.4895 331.306 73.4709 331.862 73.4709 332.976C73.4709 333.153 73.4054 333.646 73.2744 334.457C73.2308 334.726 73.2411 335.002 73.3068 335.267C74.1232 338.561 74.9396 341.855 75.7561 345.148C76.6588 348.559 77.5508 351.529 78.4321 354.06C78.6951 354.815 79.429 355.286 80.1272 355.675C80.253 355.745 80.378 355.825 80.5022 355.915C81.0295 356.296 81.2932 356.75 81.2932 357.277C81.2932 357.471 81.253 357.651 81.1726 357.816C80.8255 358.529 80.4268 359.095 80.8037 359.793C81.0561 360.26 81.3868 360.868 81.7958 361.619ZM73.5501 355.423C73.6417 355.285 73.6906 355.124 73.6906 354.959V354.84C73.6906 354.708 73.6696 354.577 73.6273 354.452C73.1533 353.053 72.398 351.066 71.3615 348.488C71.1564 348.049 70.9074 347.829 70.6145 347.829C70.2629 347.829 69.926 348.151 69.6037 348.796C68.2141 351.518 66.8793 354.035 65.5995 356.346C65.5184 356.492 65.4975 356.665 65.5415 356.826L65.5667 356.918C65.5912 357.008 65.6474 357.086 65.7249 357.138V357.138C65.8162 357.199 65.9292 357.218 66.0355 357.19C68.5445 356.548 70.8534 356.082 72.9621 355.79C73.2016 355.757 73.416 355.624 73.5501 355.423V355.423Z" fill="white" fill-opacity="0.9" shape-rendering="crispEdges"/>
<path d="M127.452 349.455C127.452 360.822 125.152 366.506 120.552 366.506C118.619 366.506 116.568 365.305 114.4 362.902C113.052 361.408 111.455 359.167 109.61 356.179C108.503 354.413 107.737 353.28 107.31 352.781C107.116 352.554 106.854 352.592 106.756 352.875C106.492 353.64 106.124 355.533 105.655 358.552C104.922 363.151 104.527 365.554 104.468 365.759C104.058 367.341 103.428 368.132 102.579 368.132C102.022 368.132 101.553 367.912 101.172 367.473C100.791 367.004 100.601 366.506 100.601 365.979C100.601 365.188 100.689 364.147 100.865 362.858C101.099 361.247 101.246 360.222 101.304 359.782C101.48 357.438 101.568 355.168 101.568 352.971C101.568 346.226 100.606 340.261 98.6821 335.078C98.5867 334.821 98.5198 334.54 98.6205 334.285C98.8093 333.807 99.3083 333.429 100.118 333.151C100.85 332.917 101.641 332.8 102.491 332.8C104.746 332.8 106.094 333.386 106.534 334.558C106.797 335.202 106.958 336.154 107.017 337.414C107.076 338.791 107.178 339.743 107.325 340.271C107.412 340.534 107.911 341.721 108.819 343.83C113.77 355.432 117.579 361.232 120.245 361.232C121.768 361.232 122.53 359.182 122.53 355.08C122.53 348.573 120.988 340.753 117.905 331.619C117.825 331.384 117.772 331.128 117.853 330.893C118.025 330.393 118.515 329.988 119.322 329.68C120.054 329.416 120.83 329.284 121.651 329.284C123.672 329.284 124.917 329.899 125.386 331.13C125.474 331.335 125.635 332.067 125.87 333.327C126.924 338.718 127.452 344.094 127.452 349.455Z" fill="white" fill-opacity="0.9" shape-rendering="crispEdges"/>
<path d="M171.545 355.212C171.545 356.706 170.754 358.42 169.171 360.354C167.795 362.082 166.344 363.342 164.821 364.133C159.518 366.945 155.05 368.352 151.418 368.352C148.839 368.352 146.833 367.517 145.397 365.847C144.02 364.294 143.332 362.229 143.332 359.65C143.332 355.637 144.928 350.466 148.122 344.138C151.315 337.897 154.523 333.503 157.746 330.954C158.302 330.515 158.815 330.31 159.284 330.339H159.348C159.452 330.339 159.555 330.345 159.656 330.369C160.525 330.582 161.251 331.436 161.833 332.932C161.891 333.137 162.228 334.367 162.843 336.623C163.693 339.67 164.118 341.633 164.118 342.512C164.118 343.215 163.986 343.845 163.722 344.401C163.429 345.163 162.975 345.544 162.36 345.544C161.686 345.544 160.895 344.929 159.987 343.698C159.108 342.468 158.551 341.853 158.317 341.853C158.141 341.853 157.892 341.97 157.57 342.204C155.314 343.991 153.234 346.481 151.33 349.675C149.279 353.132 148.254 356.164 148.254 358.771C148.254 362.521 150.143 364.396 153.922 364.396C155.417 364.396 157.409 363.752 159.899 362.463C162.126 361.291 163.869 360.09 165.129 358.859C165.392 358.625 165.524 358.376 165.524 358.112C165.524 357.614 165.231 357.307 164.645 357.189C164.469 357.131 163.986 357.102 163.195 357.102C160.822 357.102 159.152 357.219 158.185 357.453C157.13 357.717 156.53 357.849 156.383 357.849C155.797 357.849 155.504 357.497 155.504 356.794C155.504 355.856 155.768 354.919 156.296 353.981C156.743 353.186 157.285 352.528 157.922 352.006C158.147 351.823 158.421 351.714 158.706 351.661C159.848 351.45 160.978 351.227 162.096 350.993C163.62 350.7 164.909 350.554 165.963 350.554C167.37 350.554 168.615 350.979 169.699 351.828C170.929 352.736 171.545 353.864 171.545 355.212Z" fill="white" fill-opacity="0.9" shape-rendering="crispEdges"/>
<path d="M211.702 361.619C211.862 361.913 211.946 362.243 211.946 362.577C211.946 362.612 211.946 362.648 211.946 362.683C211.946 363.474 211.77 364.191 211.419 364.836C210.979 365.568 210.379 365.935 209.617 365.935C209.002 365.935 208.46 365.451 207.991 364.484C207.669 363.723 207.346 362.961 207.024 362.199C206.818 361.787 206.533 361.183 206.169 360.387C206.066 360.162 205.916 359.963 205.728 359.804L205.704 359.784C205.531 359.638 205.329 359.532 205.111 359.474V359.474C204.895 359.417 204.667 359.408 204.447 359.448C197.645 360.682 193.509 361.775 192.039 362.727C191.599 363.02 190.999 364.016 190.237 365.715C189.622 367.092 188.743 367.78 187.6 367.78C186.985 367.78 186.443 367.546 185.974 367.077C185.535 366.608 185.315 366.066 185.315 365.451C185.315 364.982 185.623 364.25 186.238 363.254C186.707 362.551 187.176 361.848 187.644 361.145C192.654 352.736 195.789 345.412 197.049 339.172C197.283 337.941 197.4 335.861 197.4 332.932C197.4 331.848 198.411 331.306 200.432 331.306C202.395 331.306 203.377 331.862 203.377 332.976C203.377 333.153 203.311 333.646 203.18 334.457C203.137 334.726 203.147 335.002 203.213 335.267C204.029 338.561 204.845 341.855 205.662 345.148C206.565 348.559 207.457 351.529 208.338 354.06C208.601 354.815 209.335 355.286 210.033 355.675C210.159 355.745 210.284 355.825 210.408 355.915C210.935 356.296 211.199 356.75 211.199 357.277C211.199 357.471 211.159 357.651 211.078 357.816C210.731 358.529 210.333 359.095 210.71 359.793C210.962 360.26 211.293 360.868 211.702 361.619ZM203.456 355.423C203.548 355.285 203.596 355.124 203.596 354.959V354.84C203.596 354.708 203.575 354.577 203.533 354.452C203.059 353.053 202.304 351.066 201.267 348.488C201.062 348.049 200.813 347.829 200.52 347.829C200.169 347.829 199.832 348.151 199.51 348.796C198.12 351.518 196.785 354.035 195.505 356.346C195.424 356.492 195.403 356.665 195.447 356.826L195.473 356.918C195.497 357.008 195.553 357.086 195.631 357.138V357.138C195.722 357.199 195.835 357.218 195.941 357.19C198.45 356.548 200.759 356.082 202.868 355.79C203.107 355.757 203.322 355.624 203.456 355.423V355.423Z" fill="white" fill-opacity="0.9" shape-rendering="crispEdges"/>
<path d="M242.318 350.353C241.881 350.859 241.728 351.562 242.044 352.151C242.816 353.591 244.434 355.519 246.898 357.937C249.711 360.661 251.117 362.814 251.117 364.396C251.117 365.363 250.546 365.847 249.403 365.847C248.847 365.847 248.275 365.51 247.689 364.836C242.416 358.771 238.71 355.739 236.571 355.739C235.253 355.739 234.242 356.823 233.539 358.991C233.07 361.013 232.602 363.034 232.133 365.056C231.576 367.224 230.844 368.308 229.936 368.308C229.438 368.308 228.998 368.088 228.617 367.648C228.236 367.209 228.046 366.726 228.046 366.198C228.046 364.763 228.251 362.302 228.661 358.815C229.101 355.3 229.32 352.648 229.32 350.861C229.32 345.124 228.514 339.914 226.9 335.233C226.816 334.99 226.761 334.728 226.836 334.482C226.986 333.993 227.389 333.609 228.046 333.327C228.69 333.034 229.394 332.888 230.155 332.888C231.972 332.888 233.1 333.503 233.539 334.733C234.066 336.228 234.33 340.827 234.33 348.532C234.33 349.704 234.506 350.29 234.857 350.29C235.326 350.29 235.985 349.865 236.835 349.016C241.704 344.146 245.667 338.002 248.722 330.583C248.824 330.336 248.964 330.091 249.204 329.972C249.419 329.865 249.676 329.812 249.975 329.812C250.912 329.812 251.879 330.251 252.875 331.13C253.9 331.979 254.413 332.873 254.413 333.811C254.413 334.631 252.978 337.019 250.106 340.974C247.528 344.46 245.639 346.833 244.438 348.093C243.899 348.584 243.193 349.338 242.318 350.353Z" fill="white" fill-opacity="0.9" shape-rendering="crispEdges"/>
<path d="M293.496 365.715C292.969 365.715 292.5 365.51 292.09 365.1C291.709 364.66 291.519 364.177 291.519 363.649C291.519 363.386 291.563 362.976 291.651 362.419C291.768 361.833 291.826 361.394 291.826 361.101C291.826 360.368 291.665 360.002 291.343 360.002C291.109 360.002 290.215 360.646 288.662 361.936C286.699 363.547 285.103 364.733 283.872 365.495C281.821 366.784 280.064 367.429 278.599 367.429C277.075 367.429 275.845 366.74 274.907 365.363C272.739 362.229 271.655 354.157 271.655 341.149C271.655 338.806 271.773 337.253 272.007 336.491C272.505 334.851 273.677 334.03 275.523 334.03C276.778 334.03 277.642 334.422 278.113 335.207C278.25 335.435 278.289 335.706 278.284 335.972C278.191 340.81 277.974 345.509 277.632 350.07C277.515 351.945 277.456 353.527 277.456 354.816C277.456 360.09 278.57 362.727 280.796 362.727C281.089 362.727 281.411 362.697 281.763 362.639C283.491 362.287 286.319 360.324 290.244 356.75C290.599 356.477 291.056 356.064 291.614 355.511C291.697 355.429 291.773 355.341 291.835 355.242C292.386 354.355 292.661 352.983 292.661 351.125C292.661 344.697 291.631 338.855 289.569 333.597C289.465 333.332 289.395 333.041 289.488 332.772C289.662 332.265 290.119 331.849 290.86 331.525C291.592 331.174 292.354 330.998 293.145 330.998C294.756 330.998 295.752 331.525 296.133 332.58C296.514 333.605 296.836 335.48 297.1 338.205C297.334 340.461 297.451 342.38 297.451 343.962C297.451 346.013 297.276 348.488 296.924 351.389C296.631 353.85 296.323 356.311 296.001 358.771C295.943 359.797 295.767 361.291 295.474 363.254C295.034 364.895 294.375 365.715 293.496 365.715Z" fill="white" fill-opacity="0.9" shape-rendering="crispEdges"/>
</g>
<defs>
<filter id="filter0_dddddddd_2_4" x="0.731018" y="329.284" width="300.72" height="47.7266" filterUnits="userSpaceOnUse" color-interpolation-filters="sRGB">
<feFlood flood-opacity="0" result="BackgroundImageFix"/>
<feColorMatrix in="SourceAlpha" type="matrix" values="0 0 0 0 0 0 0 0 0 0 0 0 0 0 0 0 0 0 127 0" result="hardAlpha"/>
<feOffset dy="4"/>
<feGaussianBlur stdDeviation="2"/>
<feComposite in2="hardAlpha" operator="out"/>
<feColorMatrix type="matrix" values="0 0 0 0 0 0 0 0 0 0 0 0 0 0 0 0 0 0 0.25 0"/>
<feBlend mode="normal" in2="BackgroundImageFix" result="effect1_dropShadow_2_4"/>
<feColorMatrix in="SourceAlpha" type="matrix" values="0 0 0 0 0 0 0 0 0 0 0 0 0 0 0 0 0 0 127 0" result="hardAlpha"/>
<feOffset dy="4"/>
<feGaussianBlur stdDeviation="2"/>
<feComposite in2="hardAlpha" operator="out"/>
<feColorMatrix type="matrix" values="0 0 0 0 0 0 0 0 0 0 0 0 0 0 0 0 0 0 0.25 0"/>
<feBlend mode="normal" in2="effect1_dropShadow_2_4" result="effect2_dropShadow_2_4"/>
<feColorMatrix in="SourceAlpha" type="matrix" values="0 0 0 0 0 0 0 0 0 0 0 0 0 0 0 0 0 0 127 0" result="hardAlpha"/>
<feOffset dy="4"/>
<feGaussianBlur stdDeviation="2"/>
<feComposite in2="hardAlpha" operator="out"/>
<feColorMatrix type="matrix" values="0 0 0 0 0 0 0 0 0 0 0 0 0 0 0 0 0 0 0.25 0"/>
<feBlend mode="normal" in2="effect2_dropShadow_2_4" result="effect3_dropShadow_2_4"/>
<feColorMatrix in="SourceAlpha" type="matrix" values="0 0 0 0 0 0 0 0 0 0 0 0 0 0 0 0 0 0 127 0" result="hardAlpha"/>
<feOffset dy="4"/>
<feGaussianBlur stdDeviation="2"/>
<feComposite in2="hardAlpha" operator="out"/>
<feColorMatrix type="matrix" values="0 0 0 0 0 0 0 0 0 0 0 0 0 0 0 0 0 0 0.25 0"/>
<feBlend mode="normal" in2="effect3_dropShadow_2_4" result="effect4_dropShadow_2_4"/>
<feColorMatrix in="SourceAlpha" type="matrix" values="0 0 0 0 0 0 0 0 0 0 0 0 0 0 0 0 0 0 127 0" result="hardAlpha"/>
<feOffset dy="4"/>
<feGaussianBlur stdDeviation="2"/>
<feComposite in2="hardAlpha" operator="out"/>
<feColorMatrix type="matrix" values="0 0 0 0 0 0 0 0 0 0 0 0 0 0 0 0 0 0 0.25 0"/>
<feBlend mode="normal" in2="effect4_dropShadow_2_4" result="effect5_dropShadow_2_4"/>
<feColorMatrix in="SourceAlpha" type="matrix" values="0 0 0 0 0 0 0 0 0 0 0 0 0 0 0 0 0 0 127 0" result="hardAlpha"/>
<feOffset dy="4"/>
<feGaussianBlur stdDeviation="2"/>
<feComposite in2="hardAlpha" operator="out"/>
<feColorMatrix type="matrix" values="0 0 0 0 0 0 0 0 0 0 0 0 0 0 0 0 0 0 0.25 0"/>
<feBlend mode="normal" in2="effect5_dropShadow_2_4" result="effect6_dropShadow_2_4"/>
<feColorMatrix in="SourceAlpha" type="matrix" values="0 0 0 0 0 0 0 0 0 0 0 0 0 0 0 0 0 0 127 0" result="hardAlpha"/>
<feOffset dy="4"/>
<feGaussianBlur stdDeviation="2"/>
<feComposite in2="hardAlpha" operator="out"/>
<feColorMatrix type="matrix" values="0 0 0 0 0 0 0 0 0 0 0 0 0 0 0 0 0 0 0.25 0"/>
<feBlend mode="normal" in2="effect6_dropShadow_2_4" result="effect7_dropShadow_2_4"/>
<feColorMatrix in="SourceAlpha" type="matrix" values="0 0 0 0 0 0 0 0 0 0 0 0 0 0 0 0 0 0 127 0" result="hardAlpha"/>
<feOffset dy="4"/>
<feGaussianBlur stdDeviation="2"/>
<feComposite in2="hardAlpha" operator="out"/>
<feColorMatrix type="matrix" values="0 0 0 0 0 0 0 0 0 0 0 0 0 0 0 0 0 0 0.25 0"/>
<feBlend mode="normal" in2="effect7_dropShadow_2_4" result="effect8_dropShadow_2_4"/>
<feBlend mode="normal" in="SourceGraphic" in2="effect8_dropShadow_2_4" result="shape"/>
</filter>
</defs>
</svg>
