<svg width="38" height="38" viewBox="0 0 38 38" fill="none" xmlns="http://www.w3.org/2000/svg">
<circle cx="19" cy="19" r="19" fill="#FF0000"/>
<path d="M17.7521 25.7292C17.5364 25.7296 17.3275 25.6561 17.1615 25.5215C17.068 25.4458 16.9908 25.3527 16.9342 25.2477C16.8776 25.1426 16.8427 25.0277 16.8315 24.9095C16.8204 24.7912 16.8332 24.672 16.8692 24.5586C16.9053 24.4452 16.9638 24.3399 17.0415 24.2487L21.1757 19.4099L17.1892 14.562C17.1125 14.4697 17.0553 14.3634 17.0207 14.2494C16.9862 14.1353 16.975 14.0157 16.9879 13.8974C17.0007 13.7792 17.0374 13.6645 17.0957 13.5601C17.154 13.4557 17.2328 13.3636 17.3276 13.2891C17.4231 13.207 17.5349 13.145 17.656 13.1071C17.7771 13.0692 17.905 13.0562 18.0315 13.0689C18.158 13.0816 18.2804 13.1197 18.3912 13.181C18.5019 13.2422 18.5985 13.3251 18.6749 13.4246L23.132 18.8411C23.2677 19.0027 23.3419 19.2053 23.3419 19.4144C23.3419 19.6235 23.2677 19.8261 23.132 19.9876L18.518 25.4042C18.4254 25.5134 18.3078 25.5998 18.1747 25.6563C18.0417 25.7127 17.8969 25.7377 17.7521 25.7292Z" fill="white"/>
<path d="M17.7521 25.7292C17.5364 25.7296 17.3275 25.6561 17.1615 25.5215C17.068 25.4458 16.9908 25.3527 16.9342 25.2477C16.8776 25.1426 16.8427 25.0277 16.8315 24.9095C16.8204 24.7912 16.8332 24.672 16.8692 24.5586C16.9053 24.4452 16.9638 24.3399 17.0415 24.2487L21.1757 19.4099L17.1892 14.562C17.1125 14.4697 17.0553 14.3634 17.0207 14.2494C16.9862 14.1353 16.975 14.0157 16.9879 13.8974C17.0007 13.7792 17.0374 13.6645 17.0957 13.5601C17.154 13.4557 17.2328 13.3636 17.3276 13.2891C17.4231 13.207 17.5349 13.145 17.656 13.1071C17.7771 13.0692 17.905 13.0562 18.0315 13.0689C18.158 13.0816 18.2804 13.1197 18.3912 13.181C18.5019 13.2422 18.5985 13.3251 18.6749 13.4246L23.132 18.8411C23.2677 19.0027 23.3419 19.2053 23.3419 19.4144C23.3419 19.6235 23.2677 19.8261 23.132 19.9876L18.518 25.4042C18.4254 25.5134 18.3078 25.5998 18.1747 25.6563C18.0417 25.7127 17.8969 25.7377 17.7521 25.7292Z" stroke="white"/>
</svg>
