<svg width="62" height="62" viewBox="0 0 62 62" fill="none" xmlns="http://www.w3.org/2000/svg">
<rect x="52.606" y="52.4615" width="42.5859" height="42.9231" transform="rotate(-180 52.606 52.4615)" fill="white"/>
<path d="M31 62C22.7783 62 14.8933 58.7339 9.07969 52.9203C3.26606 47.1067 0 39.2217 0 31C0 22.7783 3.26606 14.8933 9.07969 9.07969C14.8933 3.26606 22.7783 0 31 0C39.2217 0 47.1067 3.26606 52.9203 9.07969C58.7339 14.8933 62 22.7783 62 31C62 39.2217 58.7339 47.1067 52.9203 52.9203C47.1067 58.7339 39.2217 62 31 62V62ZM44.5625 32.9375C45.0764 32.9375 45.5692 32.7334 45.9325 32.37C46.2959 32.0067 46.5 31.5139 46.5 31C46.5 30.4861 46.2959 29.9933 45.9325 29.63C45.5692 29.2666 45.0764 29.0625 44.5625 29.0625L22.1146 29.0625L30.4342 20.7467C30.6144 20.5666 30.7573 20.3528 30.8548 20.1174C30.9523 19.882 31.0024 19.6298 31.0024 19.375C31.0024 19.1202 30.9523 18.868 30.8548 18.6326C30.7573 18.3972 30.6144 18.1834 30.4342 18.0033C30.2541 17.8231 30.0403 17.6802 29.8049 17.5827C29.5695 17.4852 29.3173 17.4351 29.0625 17.4351C28.8077 17.4351 28.5555 17.4852 28.3201 17.5827C28.0847 17.6802 27.8709 17.8231 27.6908 18.0033L16.0658 29.6283C15.8853 29.8082 15.7422 30.022 15.6445 30.2574C15.5468 30.4928 15.4965 30.7452 15.4965 31C15.4965 31.2548 15.5468 31.5072 15.6445 31.7426C15.7422 31.978 15.8853 32.1918 16.0658 32.3717L27.6908 43.9967C27.8709 44.1769 28.0847 44.3198 28.3201 44.4173C28.5555 44.5148 28.8077 44.5649 29.0625 44.5649C29.3173 44.5649 29.5695 44.5148 29.8049 44.4173C30.0403 44.3198 30.2541 44.1769 30.4342 43.9967C30.6144 43.8166 30.7573 43.6028 30.8548 43.3674C30.9523 43.132 31.0024 42.8798 31.0024 42.625C31.0024 42.3702 30.9523 42.118 30.8548 41.8826C30.7573 41.6472 30.6144 41.4334 30.4342 41.2533L22.1146 32.9375H44.5625Z" fill="#FF0000"/>
</svg>
