<svg width="40" height="40" viewBox="0 0 40 40" fill="none" xmlns="http://www.w3.org/2000/svg">
<path d="M0.161042 0H17.4991C17.5922 1.83197 17.0096 3.63449 15.8615 5.0667C15.2522 5.87129 14.5569 6.60717 13.7879 7.26133C12.2633 8.48448 12.3034 10.0581 12.8076 11.6129C13.3425 13.2736 13.9528 14.979 14.9001 16.4209C16.9548 19.547 17.5109 22.9695 17.4921 26.5731C17.4921 30.0521 17.4638 33.5287 17.4119 37.0052C17.379 39.2469 16.6721 39.922 14.4123 39.9314C10.4992 39.9455 6.58526 39.9455 2.67056 39.9314C1.1083 39.9314 0.151617 39.0917 0.128053 37.6309C0.0715007 33.7639 0.172825 29.8921 0.0125923 26.0298C-0.157066 21.9369 1.40991 18.4626 3.36805 15.0401C4.00216 13.883 4.48597 12.6499 4.80778 11.3707C5.2602 9.66295 4.82192 8.1834 3.39397 6.9673C1.5348 5.3819 0.13748 3.47659 0.0220179 0.898553C0.0220179 0.740953 0.000810375 0.585706 0.00787945 0.428107C0.0455903 0.280993 0.096863 0.137678 0.161042 0Z" fill="#E95048"/>
<path d="M19.1886 28.7419H32.9144C32.6788 31.5951 33.5601 34.5448 31.7363 37.2099C30.1622 39.508 27.0754 40.5454 23.8943 39.7174C21.3777 39.0611 19.3159 36.556 19.2075 33.905C19.125 32.2349 19.1886 30.5578 19.1886 28.7419Z" fill="white"/>
<path d="M40 23.5858C39.8728 25.818 39.934 27.975 39.5782 30.0638C39.1659 32.4984 36.4278 34.7683 34.2623 34.5825V27.2317H26.2507V23.5858H40Z" fill="#E95048"/>
</svg>
