<svg width="40" height="40" viewBox="0 0 40 40" fill="none" xmlns="http://www.w3.org/2000/svg">
<path d="M30.8104 20.8478C30.4422 20.958 30.6286 19.9092 30.0292 20.4864C29.2882 21.2115 28.4645 21.3452 27.6904 20.6084C26.9163 19.8717 26.8927 18.2269 27.5819 17.3657C28.0845 16.7369 28.6155 16.5375 30.3171 16.338C30.2888 16.2723 30.277 16.1808 30.2274 16.1433C29.5714 15.6482 28.7217 15.1578 29.0474 14.2075C29.4156 13.1 30.4634 12.5651 31.5113 12.2553C32.5591 11.9456 33.6353 12.0442 34.1309 13.3183C34.2961 13.7383 34.5793 13.7875 34.7846 13.4004C35.3345 12.3375 36.1487 12.0888 37.2296 12.4994C38.1618 12.8537 39.0752 13.3159 39.1979 14.3999C39.3348 15.6154 38.5347 16.2958 37.4751 16.7205C37.3854 16.758 37.3311 16.88 37.1754 17.0631C38.15 17.1804 39.1365 17.1076 39.7171 17.9641C40.149 18.5976 39.9861 19.332 39.8776 20.0078C39.7171 21.0097 39.2498 21.8098 38.2043 22.2204C37.1588 22.631 36.4131 21.9154 35.3723 21.6737C35.5446 22.3377 35.6791 22.8703 35.5729 23.4311C35.3912 24.3978 34.8059 24.8389 33.8123 24.663C33.1846 24.555 33.1846 24.555 32.5709 24.9187C34.4377 26.3078 34.6548 27.1994 33.4371 29.1023C34.728 28.6565 35.8419 27.5021 37.1187 28.4782C37.9766 29.1196 38.553 30.065 38.7283 31.1178C39.0256 32.9386 37.8173 33.6848 34.3292 33.8326C35.3416 34.7711 36.9016 35.407 36.3564 37.1433C35.9245 38.5277 33.9445 39.9449 32.6677 39.9965C30.6499 40.081 30.0717 38.6122 29.4534 37.0213C29.1324 37.7252 28.8964 38.3588 28.5613 38.9383C28.0397 39.8393 27.2751 40.1115 26.2673 39.6915C24.8515 39.0871 23.7323 37.9524 23.1521 36.5333C22.7296 35.5807 23.6878 33.6191 24.7852 32.9246C24.9669 32.8096 25.2431 32.7767 25.2737 32.3802C24.7616 32.1151 24.1622 32.3403 23.6217 32.2183C22.6777 32.0095 22.1868 31.5777 22.2789 30.5289C22.3898 29.2994 22.7084 28.2107 23.8766 27.6124C25.1557 26.9554 26.39 27.1243 27.5229 28.0183C27.7022 28.1614 27.8957 28.2881 28.2191 28.5228C28.0444 27.7649 27.8698 27.1572 27.7707 26.5377C27.622 25.5992 28.0704 25.0337 28.9814 24.7732C29.8923 24.5128 30.8009 24.6278 31.8464 24.6888C30.6404 23.5813 29.5761 22.4715 30.8033 20.829C31.575 20.7797 32.401 20.8712 32.5001 19.7215C32.5285 19.3883 32.9722 19.2241 33.3262 19.0716C33.5055 19.6136 33.2223 20.0242 33.1326 20.4653C33.1035 20.6006 33.1233 20.7418 33.1885 20.8641C33.2536 20.9864 33.36 21.0819 33.489 21.134C33.5739 21.1844 33.6731 21.206 33.7715 21.1954C33.8698 21.1848 33.962 21.1427 34.0342 21.0754C34.1288 21.0036 34.1982 20.9038 34.2321 20.7904C34.266 20.6769 34.2628 20.5557 34.223 20.4442C34.0766 20.1274 33.5905 19.7872 34.1616 19.5221C34.6336 19.3039 34.8814 19.7239 35.0867 20.1134C35.2921 20.5028 35.6272 20.6694 36.0661 20.4677C36.1909 20.4119 36.2943 20.3176 36.361 20.1989C36.4278 20.0801 36.4543 19.9432 36.4367 19.8083C36.4178 19.2968 35.9151 19.027 35.6626 19.1044C34.9263 19.325 34.7327 18.7712 34.2135 18.4005C34.7894 18.2574 35.1929 17.9312 35.6508 18.2808C35.9788 18.5389 36.0685 18.363 36.2313 18.0814C36.4343 17.7247 36.4909 17.408 36.1582 17.1428C36.081 17.0815 35.9917 17.0368 35.8961 17.0118C35.8004 16.9868 35.7006 16.982 35.603 16.9977C35.5054 17.0134 35.4122 17.0493 35.3294 17.103C35.2466 17.1566 35.176 17.227 35.1221 17.3094C34.8602 17.645 34.6218 18.0133 34.2489 17.6262C33.994 17.3611 34.3126 17.0232 34.5675 16.7956C34.6242 16.7463 34.7068 16.7252 34.7681 16.6783C35.1033 16.4248 35.0844 16.0705 35.0041 15.7233C34.9404 15.4535 34.7186 15.376 34.459 15.4136C34.3803 15.4173 34.3033 15.4369 34.2325 15.4712C34.1617 15.5055 34.0987 15.5537 34.0473 15.613C33.9958 15.6723 33.9571 15.7413 33.9333 15.8159C33.9096 15.8905 33.9013 15.9692 33.9091 16.0471C33.9091 16.3451 33.784 16.6079 33.4701 16.6313C33.1562 16.6548 32.9981 16.3967 32.9273 16.1222C32.8518 15.7796 32.7173 15.5074 32.309 15.6247C32.126 15.6779 31.9706 15.7988 31.8747 15.9626C31.7143 16.3028 31.8889 16.5633 32.2028 16.7252C32.4379 16.8403 32.64 17.0124 32.7906 17.2256C32.9411 17.4388 33.0352 17.6864 33.0642 17.9453C32.4388 17.7107 31.9927 17.5183 31.5231 17.3939C31.2446 17.3212 30.8882 17.2367 30.69 17.5699C30.6121 17.7013 30.3785 17.8608 30.605 18.0579C30.8316 18.255 31.103 18.5952 31.5137 18.377C31.9857 18.126 32.4364 18.2363 32.9769 18.3653C32.3066 19.3742 30.5956 19.2851 30.8104 20.8478ZM29.7602 31.7678C29.4609 31.6373 29.1975 31.4372 28.9922 31.1845C28.7869 30.9318 28.6456 30.6337 28.5801 30.3154C28.5635 30.2177 28.5268 30.1244 28.4724 30.0413C28.4179 29.9583 28.3469 29.8873 28.2637 29.8327C28.1804 29.7781 28.0868 29.7411 27.9886 29.7241C27.8904 29.707 27.7897 29.7102 27.6928 29.7335C27.5118 29.7709 27.3505 29.8719 27.2383 30.0179C27.1261 30.1639 27.0705 30.3452 27.0816 30.5286C27.0928 30.712 27.17 30.8853 27.2991 31.0168C27.4282 31.1482 27.6007 31.2291 27.7848 31.2445C28.5329 31.2445 28.8209 31.7138 29.215 32.3661C28.4669 32.277 27.8839 32.6805 27.2633 32.2511C26.7134 31.8734 26.2484 32.0986 25.8638 32.6172C25.5782 33.002 25.5546 33.3211 25.9416 33.6167C26.4679 34.0156 26.9635 33.896 27.4214 33.4853C27.8792 33.0747 28.4621 32.9762 29.1371 33.0583C28.9159 33.5924 28.5134 34.0324 27.9996 34.3019C27.91 34.3425 27.8299 34.4012 27.7644 34.4743C27.6989 34.5474 27.6495 34.6333 27.6192 34.7265C27.589 34.8197 27.5787 34.9181 27.5889 35.0155C27.5992 35.1129 27.6297 35.2071 27.6786 35.292C27.8415 35.6205 28.0704 35.7801 28.4173 35.7097C28.6146 35.6833 28.7944 35.5833 28.9202 35.4299C29.046 35.2765 29.1084 35.0812 29.0946 34.8838C29.0761 34.7279 29.0761 34.5704 29.0946 34.4145C29.1749 34.1212 29.2386 33.7458 29.6209 33.7341C30.0032 33.7223 29.7908 34.1869 29.9867 34.3558C30.3974 34.7148 30.1637 35.1137 30.1071 35.529C30.0857 35.6454 30.0877 35.7648 30.1129 35.8804C30.1382 35.996 30.1862 36.1055 30.2542 36.2026C30.3222 36.2996 30.4089 36.3824 30.5092 36.446C30.6095 36.5096 30.7215 36.5528 30.8387 36.5732C31.0325 36.6185 31.2362 36.593 31.4126 36.5012C31.589 36.4094 31.7262 36.2575 31.7992 36.0734C32.0352 35.6041 31.7992 35.2498 31.4665 34.9495C31.3839 34.8791 31.2305 34.8932 31.1455 34.8204C30.7183 34.438 30.3384 33.7669 30.6074 33.4126C30.9897 32.9246 31.4948 33.5018 31.7874 33.8396C32.2075 34.3277 32.637 34.2432 33.102 34.0297C33.4607 33.8678 33.4654 33.537 33.3521 33.2296C33.1657 32.7228 32.7338 32.7603 32.2807 32.7462C31.8275 32.7322 31.1998 33.0278 30.8151 32.3051C31.4169 32.1737 31.7921 31.6646 32.4529 31.7373C32.9509 31.7936 33.2506 31.4393 33.3285 30.9724C33.3648 30.7966 33.3295 30.6137 33.2305 30.4637C33.1314 30.3138 32.9765 30.209 32.7999 30.1723C32.6979 30.1339 32.5889 30.1174 32.4801 30.1238C32.3713 30.1302 32.265 30.1594 32.1683 30.2094C32.0716 30.2595 31.9867 30.3293 31.919 30.4143C31.8513 30.4993 31.8025 30.5975 31.7756 30.7025C31.5396 31.3525 31.0251 31.6153 30.3761 31.8382C30.3502 31.1718 30.3926 30.6016 30.7938 30.1253C31.1455 29.7077 31.0487 29.3299 30.7042 28.9897C30.6098 28.8869 30.4814 28.8211 30.3424 28.8043C30.2035 28.7875 30.063 28.8208 29.9466 28.8982C29.849 28.9462 29.763 29.0147 29.6944 29.0988C29.6258 29.1829 29.5762 29.2808 29.5491 29.3857C29.522 29.4906 29.518 29.6001 29.5373 29.7066C29.5566 29.8132 29.5988 29.9144 29.661 30.0033C29.9985 30.5852 29.8616 31.1132 29.7602 31.7678Z" fill="#E95048"/>
<path d="M11.8216 26.6597C11.1136 23.3185 10.5708 19.8552 8.48217 17.0654C6.83015 14.8504 5.4401 12.3727 3.15323 10.6434C2.80499 10.4133 2.54722 10.0708 2.42341 9.67369C2.29959 9.27661 2.3173 8.84922 2.47355 8.4636C3.11547 6.71086 2.90779 5.22795 1.32657 4.01722C0.181962 3.13733 -0.0469604 1.85621 0.00732015 0.478893C0.0285604 0.00961815 0.243323 -0.0678122 0.576086 0.0471601C1.3631 0.290901 2.19219 0.370775 3.01163 0.281798C3.24763 0.263027 3.46476 0.246602 3.53084 0.579787C3.71964 1.53711 4.45361 2.09789 5.18285 2.61409C5.7941 3.04583 5.89086 3.51745 5.49202 4.09231C4.59993 5.39455 5.13329 6.56773 5.8413 7.66114C6.38411 8.50115 7.16527 8.59969 8.18245 8.36506C11.359 7.63064 14.4058 6.3636 17.6745 6.01868C20.5466 5.72539 23.3527 6.30494 26.1469 6.8798C26.383 6.93142 26.7606 7.02293 26.7629 7.335C26.7629 7.74327 26.3499 7.7245 26.0667 7.78785C24.5705 8.12573 23.0294 8.40964 21.5402 7.99433C19.2038 7.34204 16.9712 7.75969 14.7221 8.32517C14.1627 8.46595 13.6129 8.64662 12.8057 8.88126C13.3438 9.19802 13.7143 9.42796 14.0967 9.63444C14.5828 9.89724 15.1681 10.1624 15.3168 10.6762C15.6897 11.962 16.5676 11.711 17.5116 11.6007C20.1926 11.2886 22.8712 10.9296 25.3917 12.4219C26.829 13.2737 27.7825 14.5595 28.8421 15.789C27.275 15.125 26.0573 13.9119 24.5185 13.208C22.9147 12.461 21.1119 12.2463 19.376 12.5956C20.2422 14.0198 21.4883 15.2212 21.1343 17.1851C20.4994 16.2794 19.9306 15.4769 19.3713 14.6674C18.7082 13.7054 17.9034 13.0672 16.629 13.3488C15.39 13.6186 14.5404 13.1305 13.9574 12.0254C13.7041 11.5892 13.3859 11.1936 13.0134 10.8522C12.3525 10.1853 11.4677 9.7837 10.5279 9.72398C9.58811 9.66426 8.65911 9.95061 7.91812 10.5284C7.19124 11.0751 7.46264 11.7556 7.8426 12.2624C9.50878 14.4891 11.5832 15.9157 14.5545 15.2493C15.2012 15.1015 15.4985 15.2493 15.8242 15.8476C16.9901 18.0392 18.1677 20.2283 19.8362 22.1148C21.054 23.4968 22.4936 24.494 24.3203 24.9469C25.0849 25.1393 25.8685 25.3622 26.6803 26.2773C24.9056 26.0074 23.4778 26.2116 21.9744 25.808C18.3022 24.8178 16.9901 21.7511 15.331 18.9378C15.1162 18.5718 14.8967 18.2034 14.715 17.8162C14.5899 17.5511 14.479 17.3282 14.125 17.4268C12.9521 17.7365 11.8216 17.6661 10.4882 16.8918C11.9042 19.6206 12.0552 22.2251 12.0364 24.8694C12.0364 25.3387 11.8192 25.8714 12.2204 26.3031C12.2204 26.4204 12.2204 26.5377 12.2204 26.6527L11.8027 26.6809L11.8216 26.6597Z" fill="white"/>
<path d="M12.211 26.6527C12.211 26.5377 12.211 26.4181 12.211 26.3031C13.3721 24.8225 15.515 24.8366 16.8319 26.3359C18.1488 27.8353 18.1748 27.8587 17.1765 29.6373C17.1081 29.7569 16.9287 29.8203 17.0915 30.001C17.3275 30.2497 17.5871 30.2004 17.8515 30.1324C19.9472 29.5833 20.7 30.0409 21.1012 32.1197C21.4151 33.7622 20.2445 34.9354 18.5925 34.6351C17.9152 34.5084 17.2567 34.2784 16.3694 34.0344C17.3393 35.0551 18.1866 35.9936 17.4314 37.2231C16.7116 38.3963 15.5103 38.8843 14.1273 38.8491C12.0859 38.7975 11.5313 37.331 11.2174 35.6792C11.0853 35.7144 10.9814 35.712 10.9555 35.7543C10.4292 36.6177 9.77546 37.4929 8.67333 37.2137C7.28091 36.8641 6.50918 35.7003 6.12922 34.3981C5.65721 32.8072 6.2425 31.7138 7.75292 30.9442C8.06208 30.787 8.38304 30.6533 8.69693 30.5125C8.71345 30.1699 8.4444 30.2778 8.3028 30.1887C7.53343 29.7781 6.24014 29.9376 6.41478 28.5087C6.50253 27.8672 6.80413 27.2735 7.27135 26.8226C7.73857 26.3717 8.34441 26.0896 8.99193 26.0215C9.77792 25.9399 10.5648 26.1673 11.1844 26.655C11.3425 26.7841 11.6116 27.1243 11.8216 26.655L11.7933 26.6762C11.3402 26.8662 11.6753 27.0774 11.7933 27.2581C11.8271 27.2948 11.8697 27.3225 11.9172 27.3385C11.9646 27.3545 12.0154 27.3583 12.0647 27.3496C12.3432 27.1783 12.1968 26.8944 12.211 26.6527ZM12.5154 32.2183C12.1072 32.8213 11.8428 33.3117 11.3142 33.6261C10.9413 33.8608 10.998 34.2995 11.1537 34.6914C11.2835 35.0175 11.5006 35.0128 11.8027 34.926C12.2488 34.8017 12.5626 34.5037 12.4423 34.0977C12.2582 33.476 12.5957 33.0818 12.827 32.5726C12.9966 32.7128 13.1258 32.8953 13.2012 33.1015C13.2767 33.3076 13.2958 33.5299 13.2565 33.7458C13.2398 33.8323 13.2406 33.9212 13.2588 34.0074C13.2771 34.0936 13.3124 34.1753 13.3627 34.2478C13.413 34.3203 13.4773 34.3821 13.5518 34.4297C13.6264 34.4772 13.7097 34.5095 13.7969 34.5248C13.9095 34.5618 14.0314 34.5599 14.1427 34.5194C14.2541 34.479 14.3485 34.4023 14.4105 34.3019C14.6465 33.9804 14.4648 33.7411 14.2973 33.4595C14.1085 33.1357 13.4854 32.8143 13.8607 32.4553C14.3114 32.0259 14.6418 32.6594 14.9935 32.9058C15.0857 32.9769 15.1835 33.0405 15.2861 33.0958C15.4076 33.1623 15.548 33.1864 15.6849 33.1643C15.8218 33.1422 15.9472 33.0751 16.0413 32.9738C16.2396 32.7791 16.4213 32.5609 16.2537 32.2699C16.1192 32.0353 15.98 31.8006 15.633 31.8429C15.2861 31.8851 14.8731 31.81 14.4908 32.0118C14.4225 32.0525 14.3462 32.0781 14.2671 32.0868C14.188 32.0955 14.1079 32.0871 14.0324 32.0621C13.9569 32.0371 13.8876 31.9962 13.8295 31.9422C13.7713 31.8882 13.7256 31.8223 13.6955 31.749C13.4854 31.261 14.0447 31.3501 14.2217 31.1577C14.3515 31.017 14.6513 31.0498 14.8519 30.9559C15.1327 30.8245 15.4372 30.6697 15.3947 30.2849C15.39 30.1461 15.3371 30.0133 15.2451 29.9089C15.153 29.8045 15.0274 29.7351 14.8896 29.7124C14.812 29.6943 14.7314 29.6922 14.6529 29.7063C14.5744 29.7205 14.4997 29.7504 14.4333 29.7944C14.3669 29.8384 14.3104 29.8955 14.2671 29.9621C14.2238 30.0287 14.1947 30.1034 14.1816 30.1816C14.04 30.6814 13.6412 30.8386 13.2211 31.0404C13.154 30.486 13.2178 29.9236 13.4075 29.398C13.4548 29.2449 13.4428 29.0799 13.3737 28.9353C13.3047 28.7907 13.1838 28.677 13.0347 28.6166C12.9741 28.5844 12.9072 28.5657 12.8386 28.5619C12.77 28.5581 12.7014 28.5692 12.6376 28.5944C12.5738 28.6197 12.5163 28.6585 12.4691 28.7081C12.4219 28.7577 12.3862 28.817 12.3644 28.8818C12.303 29.1422 11.772 29.4097 12.329 29.7382C12.886 30.0667 12.7845 30.5688 12.6264 31.1882C12.2063 30.8386 11.7484 30.6767 11.6564 30.0643C11.5998 29.6889 11.1844 29.5692 10.8327 29.642C10.6944 29.6656 10.5709 29.7422 10.4888 29.8554C10.4067 29.9687 10.3726 30.1094 10.3938 30.2473C10.3966 30.4048 10.4597 30.5553 10.5702 30.6682C10.6807 30.7811 10.8302 30.8479 10.9885 30.8551C11.0664 30.8551 11.1443 30.8551 11.2245 30.8551C11.6304 30.8949 11.9325 31.1319 11.8759 31.5167C11.7886 31.9977 11.326 31.803 11.0003 31.7959C10.8894 31.7959 10.7808 31.7138 10.6675 31.6974C10.5894 31.6765 10.5078 31.6715 10.4277 31.6827C10.3475 31.694 10.2705 31.7213 10.2013 31.763C10.132 31.8046 10.072 31.8598 10.0247 31.9251C9.97753 31.9905 9.9441 32.0647 9.9265 32.1432C9.88234 32.2524 9.87066 32.372 9.89283 32.4876C9.91501 32.6032 9.9701 32.7101 10.0516 32.7955C10.1682 32.904 10.3233 32.9623 10.4829 32.9574C10.6426 32.9526 10.7938 32.8851 10.9035 32.7697C11.1072 32.5549 11.3604 32.3925 11.6411 32.2965C11.9219 32.2004 12.2219 32.1736 12.5154 32.2183Z" fill="#E95048"/>
<path d="M30.8599 3.12091C31.4051 3.15141 32.1084 3.18896 32.3585 3.96561C32.5804 4.66952 32.5001 5.22796 31.634 5.51421C31.3272 5.61511 31.3862 6.02572 31.8181 6.16885C32.2669 6.29887 32.7023 6.47092 33.1185 6.68271C33.994 7.17075 33.9964 7.97791 33.1185 8.47534C32.6276 8.75456 32.1296 9.04785 31.5373 9.10182C31.1691 9.13467 30.8623 9.20975 30.9166 9.72595C30.9803 10.3477 30.5767 10.4299 30.0764 10.2985C28.0751 9.81277 26.7204 7.5274 27.2939 5.60572C27.5343 4.86151 28.0129 4.21588 28.6567 3.76726C29.3006 3.31865 30.0743 3.09166 30.8599 3.12091Z" fill="#E95048"/>
<path d="M22.7981 17.3235C23.4781 17.3591 24.1265 17.6202 24.6399 18.065C25.1532 18.5099 25.5018 19.1129 25.6301 19.7778C25.6871 19.9851 25.679 20.2048 25.6069 20.4073C25.5347 20.6099 25.402 20.7857 25.2265 20.9111C25.1011 20.9872 24.9939 21.0897 24.9123 21.2112C24.8308 21.3328 24.777 21.4706 24.7545 21.615C24.5468 22.631 23.8105 22.9149 22.9538 22.3729C22.7178 22.2298 22.5573 22.0491 22.2458 22.0139C20.9336 21.8684 20.1218 20.8947 20.2115 19.6394C20.2775 19.0034 20.5787 18.4144 21.0565 17.9866C21.5344 17.5587 22.155 17.3225 22.7981 17.3235Z" fill="#E95048"/>
<path d="M29.7602 31.7678C29.8616 31.1132 29.9962 30.5946 29.6657 30.0244C29.6035 29.9355 29.5613 29.8344 29.542 29.7278C29.5227 29.6212 29.5267 29.5117 29.5538 29.4068C29.5809 29.3019 29.6305 29.2041 29.6991 29.1199C29.7677 29.0358 29.8537 28.9674 29.9513 28.9193C30.0677 28.8419 30.2082 28.8086 30.3472 28.8254C30.4862 28.8422 30.6145 28.908 30.7089 29.0108C31.0534 29.351 31.1502 29.7288 30.7986 30.1465C30.3974 30.6157 30.3549 31.1929 30.3808 31.8593C31.0298 31.6364 31.5467 31.3736 31.7803 30.7237C31.8072 30.6186 31.856 30.5204 31.9237 30.4354C31.9914 30.3504 32.0764 30.2806 32.1731 30.2306C32.2698 30.1805 32.376 30.1513 32.4848 30.1449C32.5937 30.1385 32.7026 30.155 32.8046 30.1934C32.9812 30.2301 33.1361 30.3349 33.2352 30.4849C33.3342 30.6348 33.3695 30.8177 33.3332 30.9935C33.2553 31.4628 32.9556 31.8147 32.4577 31.7584C31.7969 31.6857 31.4216 32.1948 30.8198 32.3262C31.2045 33.0489 31.8039 32.7603 32.2854 32.7674C32.7668 32.7744 33.1704 32.7439 33.3568 33.2507C33.4701 33.5581 33.4654 33.8889 33.1067 34.0508C32.6347 34.2643 32.2122 34.3488 31.7921 33.8608C31.5018 33.5229 30.9968 32.9457 30.6121 33.4337C30.3431 33.7786 30.723 34.4497 31.1502 34.8415C31.2304 34.9143 31.3862 34.9002 31.4712 34.9706C31.8134 35.2709 32.0376 35.6182 31.8039 36.0945C31.731 36.2787 31.5937 36.4305 31.4173 36.5223C31.2409 36.6141 31.0372 36.6396 30.8434 36.5943C30.7262 36.5739 30.6142 36.5307 30.5139 36.4671C30.4136 36.4035 30.3269 36.3208 30.2589 36.2237C30.1909 36.1266 30.1429 36.0171 30.1176 35.9015C30.0924 35.7859 30.0904 35.6665 30.1118 35.5501C30.1684 35.1348 30.4021 34.736 29.9914 34.377C29.7956 34.208 30.0316 33.7411 29.6256 33.7552C29.2197 33.7692 29.1796 34.1423 29.0993 34.4356C29.0808 34.5915 29.0808 34.749 29.0993 34.9049C29.1131 35.1024 29.0508 35.2976 28.925 35.451C28.7991 35.6044 28.6193 35.7045 28.422 35.7308C28.0751 35.8012 27.8462 35.6417 27.6833 35.3132C27.6344 35.2282 27.6039 35.134 27.5937 35.0366C27.5834 34.9392 27.5938 34.8408 27.624 34.7476C27.6542 34.6545 27.7036 34.5686 27.7691 34.4954C27.8346 34.4223 27.9147 34.3636 28.0043 34.323C28.5181 34.0535 28.9207 33.6135 29.1418 33.0794C28.4669 32.9973 27.9099 33.0794 27.4261 33.5065C26.9423 33.9335 26.4821 34.0367 25.9464 33.6379C25.5593 33.3422 25.5829 33.0231 25.8685 32.6383C26.2532 32.1198 26.7181 31.8945 27.268 32.2723C27.8886 32.7017 28.4716 32.2981 29.2197 32.3872C28.8256 31.7443 28.5377 31.2704 27.7895 31.2657C27.6054 31.2502 27.433 31.1693 27.3038 31.0379C27.1747 30.9064 27.0975 30.7331 27.0863 30.5497C27.0752 30.3663 27.1308 30.185 27.243 30.039C27.3552 29.893 27.5165 29.7921 27.6975 29.7546C27.7944 29.7313 27.8951 29.7281 27.9933 29.7452C28.0915 29.7623 28.1852 29.7992 28.2684 29.8538C28.3516 29.9084 28.4227 29.9794 28.4771 30.0624C28.5315 30.1455 28.5682 30.2388 28.5849 30.3365C28.6529 30.6505 28.7949 30.944 28.9992 31.1928C29.2035 31.4417 29.4643 31.6387 29.7602 31.7678Z" fill="#FAFAFA"/>
<path d="M30.8104 20.8478C30.5956 19.2851 32.3066 19.3742 32.9698 18.3747C32.4293 18.2456 31.9833 18.1401 31.5066 18.3864C31.0959 18.6046 30.8552 18.2926 30.598 18.0673C30.3407 17.8421 30.598 17.7107 30.6829 17.5793C30.8812 17.2461 31.2375 17.3306 31.516 17.4033C31.988 17.5277 32.4317 17.7271 33.0571 17.9547C33.0281 17.6958 32.9341 17.4482 32.7835 17.235C32.633 17.0218 32.4308 16.8496 32.1957 16.7346C31.8818 16.5727 31.7072 16.3122 31.8677 15.972C31.9635 15.8082 32.1189 15.6872 32.3019 15.6341C32.7102 15.5168 32.8447 15.789 32.9202 16.1316C32.9816 16.4155 33.1562 16.6642 33.463 16.6407C33.7698 16.6173 33.902 16.3545 33.902 16.0565C33.8942 15.9786 33.9025 15.8999 33.9262 15.8253C33.95 15.7507 33.9888 15.6816 34.0402 15.6224C34.0916 15.5631 34.1546 15.5149 34.2254 15.4806C34.2962 15.4463 34.3732 15.4267 34.4519 15.423C34.7115 15.3854 34.9239 15.4628 34.997 15.7327C35.082 16.0799 35.1009 16.4366 34.761 16.6876C34.6997 16.7346 34.6171 16.7557 34.5604 16.805C34.3056 17.0396 33.987 17.3704 34.2418 17.6356C34.6147 18.0227 34.8531 17.6544 35.115 17.3188C35.1689 17.2364 35.2395 17.166 35.3223 17.1123C35.4051 17.0587 35.4983 17.0228 35.5959 17.0071C35.6935 16.9914 35.7933 16.9962 35.889 17.0212C35.9846 17.0462 36.0739 17.0908 36.1511 17.1522C36.4839 17.4103 36.4272 17.7271 36.2243 18.0908C36.0614 18.3723 35.9717 18.5601 35.6437 18.2902C35.1858 17.9336 34.7823 18.2668 34.2064 18.4099C34.7256 18.7759 34.9144 19.3297 35.6555 19.1138C35.908 19.0387 36.4107 19.3085 36.4296 19.8177C36.4465 19.9537 36.4186 20.0914 36.3501 20.2103C36.2816 20.3292 36.1761 20.4228 36.0496 20.477C35.6106 20.6788 35.2779 20.5146 35.0702 20.1227C34.8625 19.7309 34.61 19.3132 34.1451 19.5315C33.5739 19.7966 34.0601 20.1368 34.2064 20.4536C34.2463 20.5651 34.2495 20.6863 34.2156 20.7998C34.1816 20.9132 34.1123 21.013 34.0176 21.0848C33.9455 21.1521 33.8533 21.1942 33.7549 21.2048C33.6566 21.2154 33.5574 21.1938 33.4725 21.1434C33.3446 21.0882 33.2405 20.9899 33.1783 20.8659C33.1162 20.7419 33.1 20.6 33.1326 20.4653C33.2223 20.0242 33.5055 19.6136 33.3261 19.0716C32.9839 19.2241 32.5285 19.3883 32.5001 19.7215C32.401 20.8712 31.575 20.7797 30.8033 20.829L30.8104 20.8478Z" fill="#FAFAFA"/>
<path d="M12.211 26.6527C12.1968 26.8873 12.3432 27.1783 12.067 27.3566C12.0177 27.3653 11.967 27.3615 11.9195 27.3455C11.8721 27.3295 11.8295 27.3018 11.7956 27.2651C11.6753 27.0844 11.3401 26.8733 11.7956 26.6832L12.211 26.6527Z" fill="#FAFAFA"/>
<path d="M12.5154 32.2183C12.2229 32.1721 11.9235 32.1971 11.6428 32.2911C11.362 32.3851 11.1084 32.5453 10.9036 32.758C10.7938 32.8734 10.6426 32.9409 10.4829 32.9457C10.3233 32.9505 10.1682 32.8923 10.0516 32.7838C9.97011 32.6984 9.91501 32.5915 9.89284 32.4759C9.87066 32.3602 9.88235 32.2407 9.9265 32.1315C9.94529 32.0553 9.97901 31.9836 10.0257 31.9204C10.0725 31.8572 10.1313 31.8038 10.1988 31.7632C10.2663 31.7227 10.3413 31.6958 10.4193 31.6841C10.4973 31.6724 10.5768 31.6761 10.6534 31.6951C10.7667 31.7115 10.8752 31.7913 10.9862 31.7936C11.3118 31.7936 11.7744 31.9954 11.8617 31.5144C11.9302 31.1296 11.6257 30.8926 11.2104 30.8527C11.1325 30.8527 11.0546 30.8644 10.9744 30.8527C10.8161 30.8456 10.6665 30.7788 10.556 30.6659C10.4455 30.553 10.3825 30.4025 10.3796 30.245C10.3584 30.107 10.3926 29.9663 10.4746 29.8531C10.5567 29.7399 10.6802 29.6632 10.8186 29.6396C11.1797 29.5669 11.5856 29.6866 11.6422 30.062C11.7343 30.6744 12.1921 30.8363 12.6122 31.1859C12.7703 30.5664 12.8482 30.0502 12.3148 29.7358C11.7815 29.4214 12.2889 29.1398 12.3502 28.8794C12.3709 28.8124 12.4063 28.7508 12.454 28.6992C12.5017 28.6476 12.5604 28.6072 12.6258 28.5811C12.6912 28.555 12.7617 28.5438 12.832 28.5483C12.9024 28.5529 12.9708 28.573 13.0323 28.6072C13.1814 28.6676 13.3024 28.7813 13.3714 28.9259C13.4404 29.0705 13.4525 29.2356 13.4052 29.3886C13.2155 29.9142 13.1516 30.4766 13.2187 31.031C13.6388 30.8292 14.0377 30.672 14.1793 30.1723C14.1923 30.094 14.2214 30.0193 14.2647 29.9527C14.308 29.8861 14.3646 29.829 14.431 29.785C14.4973 29.741 14.5721 29.7111 14.6506 29.697C14.729 29.6828 14.8096 29.6849 14.8873 29.703C15.025 29.7257 15.1506 29.7951 15.2427 29.8995C15.3348 30.0039 15.3877 30.1367 15.3923 30.2755C15.4348 30.6603 15.1304 30.8152 14.8495 30.9466C14.6489 31.0404 14.3492 31.0076 14.2194 31.1483C14.0424 31.3407 13.4831 31.2516 13.6931 31.7396C13.7232 31.8129 13.769 31.8788 13.8271 31.9328C13.8853 31.9868 13.9545 32.0277 14.03 32.0527C14.1056 32.0777 14.1856 32.0861 14.2648 32.0774C14.3439 32.0687 14.4202 32.0432 14.4884 32.0024C14.8708 31.8006 15.2507 31.8851 15.6307 31.8335C16.0106 31.7819 16.1168 32.0235 16.2514 32.2605C16.4189 32.5585 16.2372 32.7767 16.039 32.9644C15.9449 33.0657 15.8194 33.1328 15.6825 33.1549C15.5456 33.177 15.4053 33.1529 15.2838 33.0865C15.1812 33.0311 15.0833 32.9675 14.9911 32.8964C14.6395 32.6618 14.3091 32.0165 13.8583 32.4459C13.4831 32.8049 14.0943 33.1263 14.2949 33.4501C14.4625 33.7317 14.6442 33.971 14.4082 34.2925C14.3461 34.3929 14.2518 34.4696 14.1404 34.5101C14.029 34.5505 13.9072 34.5524 13.7946 34.5154C13.7073 34.5002 13.624 34.4678 13.5495 34.4203C13.4749 34.3727 13.4106 34.3109 13.3603 34.2384C13.31 34.1659 13.2747 34.0842 13.2565 33.998C13.2383 33.9118 13.2375 33.8229 13.2541 33.7364C13.2934 33.5205 13.2743 33.2982 13.1989 33.0921C13.1234 32.886 12.9943 32.7034 12.8246 32.5632C12.5886 33.0724 12.2558 33.4666 12.4399 34.0884C12.5603 34.4943 12.2464 34.7923 11.8004 34.9166C11.4983 35.0011 11.2812 35.0058 11.1514 34.682C10.9956 34.2901 10.939 33.8467 11.3118 33.6167C11.8428 33.3164 12.1072 32.8213 12.5154 32.2183Z" fill="#FAFAFA"/>
</svg>
