<svg width="40" height="40" viewBox="0 0 40 40" fill="none" xmlns="http://www.w3.org/2000/svg">
<path d="M5.61463 12.3932C5.46747 13.4008 5.22863 14.4036 5.18762 15.4135C5.10077 17.665 5.92826 19.6223 7.3275 21.3651C8.63749 22.9994 10.3045 24.2071 11.9836 25.5136C12.4034 24.6168 12.4227 23.7876 12.4661 22.9633C12.4975 22.4619 12.6808 22.3124 13.132 22.6716C13.8693 23.2255 14.5038 23.9043 15.0065 24.6771C15.5469 25.5666 15.173 26.3452 14.6929 27.1262C14.3889 27.6252 14.9172 27.8493 15.1537 28.0904C16.5047 29.5753 17.4311 31.2602 17.735 33.2609C18.2175 36.3801 16.4926 38.5254 13.3081 38.7906C10.8956 38.9906 8.83773 38.1976 6.97287 36.7369C6.70267 36.5247 6.47107 35.9848 5.91137 36.4693C4.07787 38.0554 3.12252 37.6432 1.15874 35.8884C0.899652 35.6255 0.657896 35.3461 0.434993 35.0519C1.48202 34.7916 2.44219 34.5361 3.4096 34.3288C4.11888 34.1721 4.19849 33.9214 3.75942 33.3163C1.93492 30.8258 0.740528 27.9312 0.27818 24.8796C-0.505882 19.8175 0.261293 15.1267 3.94759 11.1783C2.98259 14.5313 2.64243 17.8699 4.05374 21.2132C4.17919 20.7601 4.16954 19.4391 3.91864 18.9425C3.75306 18.58 3.69206 18.1784 3.74253 17.7831C3.85833 15.9366 3.88245 14.0661 4.96325 12.4414C5.21174 12.7307 5.41922 12.5306 5.61463 12.3932Z" fill="white"/>
<path d="M36.5405 27.9988C36.0362 27.6902 36.181 27.3311 36.2992 26.9285C37.1339 24.3179 36.8396 21.7267 36.1062 19.1522C35.9904 18.7449 35.8939 18.6195 35.257 18.0434C35.7271 19.6085 35.9804 21.2306 36.0097 22.8644C36.029 24.0697 35.3897 25.1255 35.4717 26.3162C35.4814 26.3768 35.4757 26.4388 35.455 26.4966C35.4343 26.5543 35.3994 26.6059 35.3534 26.6465C35.3075 26.6872 35.252 26.7155 35.1921 26.729C35.1322 26.7425 35.0699 26.7406 35.0109 26.7236C34.7528 26.6778 34.7431 26.4657 34.7311 26.2656C34.6871 25.9915 34.6742 25.7134 34.6925 25.4364C35.2088 22.134 33.7878 19.5741 31.5707 17.3347C30.4588 16.2555 29.258 15.2718 27.9809 14.3939C27.4019 15.3581 27.6625 16.4477 27.2572 17.448C26.2334 16.8711 25.3924 16.0183 24.8302 14.9869C24.5407 14.4903 24.5069 13.7817 24.7578 13.4972C25.8458 12.292 24.6854 11.7785 24.1523 11.0554C23.016 9.51748 22.2367 7.83494 22.1089 5.8969C21.9641 3.72745 22.9581 2.19438 25.0232 1.47605C27.8072 0.511853 30.3307 1.1892 32.5815 2.88619C33.327 3.44302 33.8143 3.60934 34.6298 2.97296C35.906 1.98466 38.7672 3.00432 39.31 4.52775C39.4716 4.98334 39.1291 4.94477 38.8637 5.00985C38.1568 5.15207 37.4596 5.32803 36.7503 5.45097C35.8264 5.61006 35.7853 5.9885 36.2944 6.70683C38.0231 9.16475 39.1789 11.9784 39.6767 14.9411C40.2002 17.988 40.1592 21.0204 39.0205 23.9009C38.4286 25.3957 37.5903 26.7808 36.5405 27.9988Z" fill="#E94E48"/>
<path d="M34.6877 26.9839C35.0326 27.0997 35.1509 27.1406 34.982 27.4998C34.7021 28.1 34.6177 28.7918 34.2003 29.3342C33.0182 30.8721 33.3029 32.5763 33.6551 34.2733C33.9953 35.9028 34.3789 37.5227 34.7456 39.1449C34.8131 39.4318 34.8348 39.7379 34.6394 39.9332C34.444 40.1284 34.2148 39.8391 34.0001 39.7837C32.1883 39.3016 31.631 37.8143 31.1871 36.2595C30.7046 34.5722 30.4296 34.3312 28.6781 34.389C27.6793 34.418 26.6782 34.5312 25.6866 34.483C25.0738 34.4541 24.3091 34.3553 24.145 33.5911C24.0051 32.9331 24.5141 32.5112 25.0063 32.1448C27.1239 30.5134 29.6682 29.5282 32.3331 29.3077C33.2981 29.2233 33.7806 28.8256 33.9832 27.9337C34.0165 27.7308 34.0978 27.5388 34.2203 27.3736C34.3429 27.2084 34.5031 27.0748 34.6877 26.9839Z" fill="#E94E48"/>
<path d="M5.95239 10.8143C5.80281 10.7468 5.63635 10.6408 5.77145 10.4769C7.06937 8.90522 6.62306 7.14798 6.27807 5.4317C5.95721 3.83113 5.53985 2.24984 5.14179 0.666138C4.98256 0.0225349 5.1635 -0.0835389 5.79557 0.0514491C7.383 0.39133 8.06815 1.55078 8.55547 2.91271C9.58079 5.78362 9.57355 5.7812 12.6374 5.40999C13.5566 5.29669 14.4589 5.27018 15.3105 5.77397C15.8895 6.11626 15.986 6.49712 15.612 7.03466C15.2559 7.51988 14.8024 7.92548 14.2803 8.22546C12.0323 9.62988 9.48194 10.4793 6.84019 10.7035C6.59894 10.7252 6.35769 10.7517 6.23706 11C6.22259 10.8095 6.11161 10.7758 5.95239 10.8143Z" fill="white"/>
<path d="M5.95237 10.8143C6.1116 10.7757 6.22257 10.8143 6.23705 10.9999C6.0923 11.482 6.05128 12.034 5.61462 12.3956C5.41197 12.5306 5.21173 12.7306 4.98013 12.4366C5.33236 11.9111 5.09352 11.0361 5.95237 10.8143Z" fill="white"/>
</svg>
