<svg width="40" height="40" viewBox="0 0 40 40" fill="none" xmlns="http://www.w3.org/2000/svg">
<path d="M33.6473 5.88312C33.9182 6.70642 33.823 7.37213 33.8255 8.01901C33.8401 14.6925 33.8059 21.366 33.8743 28.0394C33.9309 29.3908 33.5243 30.7225 32.7172 31.829C31.1108 34.0543 29.6168 36.3548 28.1252 38.6507C27.637 39.4175 27.0633 39.7445 26.0844 39.7468C22.4811 39.761 18.8755 39.8221 15.2747 39.9821C14.5983 40.038 13.9171 39.9628 13.2714 39.7608C12.6256 39.5587 12.0285 39.2341 11.5152 38.8059C9.07399 36.8512 8.90066 37.5004 10.8951 34.807C13.7074 31.0175 16.5319 27.242 19.5615 23.603C22.9279 19.5547 26.0893 15.3464 29.3532 11.2158C30.7227 9.49625 32.1191 7.78613 33.6473 5.88312Z" fill="#E94D47"/>
<path d="M13.7123 28.7592C13.1142 26.8398 12.6968 25.1273 12.0401 23.5042C11.5176 22.2151 12.0401 21.0272 12.4355 20.0157C14.0516 15.8004 15.1844 11.4439 16.6686 7.19569C17.484 4.86221 18.2163 2.49109 19.0341 0C20.057 4.02714 21.0457 7.90844 22.0271 11.7921C22.3689 13.1517 22.6764 14.5208 23.0255 15.8804C23.1256 16.2685 23.2111 16.6049 22.923 16.9719C19.8861 20.8414 16.8639 24.7203 13.7123 28.7592Z" fill="white"/>
<path d="M8.5467 35.5221C8.19272 33.0639 7.88269 30.5987 7.46768 28.1523C6.97944 25.2825 6.8647 22.3563 6.04689 19.5335C5.88089 18.9548 5.96878 18.2938 6.01028 17.6775C6.05178 17.0612 6.6279 17.3364 6.96235 17.2329C8.13657 16.8707 8.82011 16.9648 9.25953 18.4091C10.3654 22.0622 11.3419 25.753 12.4868 29.4061C12.7456 30.22 12.1866 30.6081 11.8472 31.1233C10.8707 32.6264 9.84054 34.1131 8.83476 35.5926L8.5467 35.5221Z" fill="#E94D47"/>
<path d="M28.799 39.5351C29.6778 38.3049 30.481 37.2322 31.2207 36.1219C31.6015 35.5527 32.224 35.3551 32.7562 35.0328C35.1266 33.6003 37.519 32.2101 39.9407 30.7634C40.1653 31.4056 39.6966 31.5891 39.4525 31.8478C38.3344 33.0804 37.0552 34.2001 36.0641 35.5103C34.2893 37.8744 31.7822 38.8812 28.799 39.5351Z" fill="white"/>
<path d="M0 16.6519C1.41916 15.7847 2.83995 14.9159 4.26236 14.0456C5.10458 13.5257 5.87845 13.4081 6.5449 14.3138C6.68161 14.4996 6.95014 14.6054 7.05755 14.8007C7.2797 15.1935 7.99742 15.4499 7.80457 15.8569C7.56044 16.3579 6.87446 16.0921 6.37157 16.1321C4.84337 16.292 3.31761 16.492 1.79185 16.6731L0.0488245 16.8801L0 16.6519Z" fill="#E94D47"/>
</svg>
