<svg width="40" height="40" viewBox="0 0 40 40" fill="none" xmlns="http://www.w3.org/2000/svg">
<path d="M39.9932 38.7241C39.9608 38.7614 39.9324 38.8019 39.9083 38.8451C39.4527 39.9445 38.3418 40.3266 37.3184 39.6958C35.693 38.6966 34.0827 37.6755 32.46 36.6723C30.4251 35.4134 28.3874 34.16 26.347 32.9121C24.6003 31.8393 22.8532 30.7668 21.1056 29.6949C20.6363 29.4076 20.1615 29.1273 19.6772 28.8703C19.5534 28.8105 19.4118 28.7997 19.2804 28.84C18.9725 28.9583 18.6408 29.0002 18.3134 28.9624C17.9859 28.9246 17.6724 28.8082 17.3992 28.6229C16.8328 28.2642 16.265 27.9027 15.6698 27.5976C15.3236 27.4302 15.0301 27.1701 14.8216 26.8459C14.613 26.5217 14.4975 26.146 14.4877 25.7602C14.4576 24.8586 14.8626 24.0203 15.5823 23.4005C16.1747 22.8851 16.8478 22.5924 17.6482 22.7999C17.862 22.8651 18.0666 22.9575 18.257 23.0748C18.9876 23.4871 19.7196 23.8994 20.4352 24.3419C20.8894 24.6168 21.0768 25.084 21.2164 25.5788C21.2678 25.77 21.3821 25.938 21.5406 26.0557C22.9718 26.9673 24.4102 27.867 25.8559 28.7548C27.7002 29.8937 29.5476 31.0289 31.3983 32.1604C33.446 33.4193 35.4946 34.6786 37.5441 35.9384C37.9546 36.1926 38.3733 36.4441 38.8015 36.6723C39.3693 36.9746 39.803 37.3855 40 38.0177L39.9932 38.7241Z" fill="#E94E48"/>
<path d="M23.0853 31.9158L27.4635 34.5778C27.0749 34.9695 26.7397 35.4024 26.3183 35.713C25.3483 36.4304 24.3837 37.1739 23.3343 37.7594C20.3093 39.4498 17.0407 39.9679 13.6203 39.5308C11.9807 39.2999 10.3863 38.8164 8.89327 38.0974C6.56738 37.0158 4.70804 35.3694 3.13328 33.3519C0.83475 30.4067 -0.10792 27.0301 0.00974267 23.3496C0.105515 20.3784 0.987985 17.6242 2.71598 15.2082C4.22097 13.1096 6.0639 11.3477 8.39663 10.1878C8.82446 9.96972 9.18952 9.64514 9.45696 9.24503C11.0477 7.04613 12.6439 4.85042 14.2456 2.65792C14.8503 1.83333 15.4961 1.04036 16.1733 0.259748L11.1343 8.91794L11.174 9.01139C14.4576 8.04249 17.7139 8.13733 21.0112 9.21205L17.1557 0.0371092L17.2336 0C17.2993 0.107197 17.3705 0.21164 17.4279 0.321585C18.2967 1.85945 19.1559 3.40144 20.0274 4.9338C20.9742 6.58848 21.9319 8.23766 22.9006 9.88134C22.9892 10.0075 23.1035 10.1134 23.2358 10.1919C24.1142 10.7939 25.0527 11.3189 25.8668 11.9964C30.3421 15.7222 32.0783 20.5392 31.3915 26.2893C31.2172 27.5978 30.8631 28.8757 30.3393 30.0865C30.2956 30.1937 30.2395 30.2954 30.1752 30.4274L25.8818 27.7612C27.1939 24.5027 26.7575 21.3775 24.9556 18.4158C23.8693 16.6036 22.2557 15.1698 20.3325 14.308C14.7148 11.7477 8.85633 14.4537 6.45383 18.6371C3.92955 23.0349 4.75729 28.5501 8.46367 31.8773C12.6243 35.603 18.7441 35.735 23.0853 31.9158Z" fill="#E94E48"/>
<path d="M19.71 22.9841C18.6565 22.3189 17.6728 21.6194 16.3772 22.011C15.529 22.2735 14.7944 22.8171 14.2934 23.553C13.3056 24.9493 13.4548 26.8514 14.5507 27.8134C13.3631 27.8588 11.8335 26.0089 11.6775 24.3447C11.4805 22.176 13.0457 20.2725 15.2772 19.9468C17.2501 19.6706 19.3338 21.06 19.71 22.9841Z" fill="white"/>
<path d="M24.7764 27.0617C24.3769 27.0136 24.4822 26.7621 24.5534 26.5119C25.6794 22.6089 24.0909 18.3787 20.6294 16.3118C16.6057 13.9095 11.854 14.8399 8.89464 18.0833C6.30606 20.9199 5.78069 25.8963 8.37063 29.2908C10.3422 31.8759 12.9937 33.2076 16.2978 33.0441C18.159 32.9483 19.9479 32.2896 21.4298 31.1544C21.6679 30.9771 21.7979 31.0609 21.9538 31.2272C18.9001 33.9058 13.5656 34.5105 9.63072 31.2272C5.62882 27.8918 5.217 22.1567 8.07784 18.4241C11.1945 14.3575 16.3922 13.3116 20.8018 15.9366C25.2251 18.5835 26.0912 23.7592 24.7764 27.0617Z" fill="white"/>
<path d="M21.0823 30.6802C18.4171 32.8558 13.935 33.4028 10.5064 30.6802C6.74936 27.7021 6.26503 22.925 8.50335 19.5304C11.2889 15.2934 16.1049 14.5952 19.8263 16.5069C23.7078 18.4928 25.1731 23.1476 23.9527 26.5532C23.6353 26.5051 23.6189 26.3195 23.6791 26.0447C24.4384 22.7078 23.5532 19.8754 20.9154 17.7163C19.1217 16.2485 16.9929 15.6878 14.6711 16.0108C12.1112 16.3681 10.1917 17.6984 8.82077 19.8795C7.23643 22.4014 7.13792 25.0675 8.49788 27.6224C11.0016 32.3239 16.2075 33.1444 19.903 30.9771C20.103 30.881 20.2956 30.7698 20.4789 30.6445C20.7088 30.4576 20.8949 30.4521 21.0823 30.6802Z" fill="#E94E48"/>
<path d="M23.1017 26.0254C22.787 25.9581 22.7638 25.7781 22.8158 25.5183C23.2974 23.1462 22.787 20.9996 21.1384 19.2391C19.4378 17.4209 17.2993 16.6746 14.7942 16.9604C12.0784 17.271 9.23531 19.5277 8.73456 22.969C8.69215 23.2644 8.58133 23.5585 8.58954 23.8499C8.69215 27.2857 10.8224 30.2583 14.3235 30.9799C16.1037 31.373 17.9663 31.0535 19.5157 30.0893C19.8222 29.9038 19.8222 29.9038 20.1164 30.1305C17.8876 31.9364 13.8324 32.2236 11.0276 29.8557C8.09973 27.3819 7.5853 23.9461 8.65384 21.4077C9.64166 19.0714 11.3013 17.4002 13.8036 16.7351C15.5703 16.2463 17.4537 16.4212 19.1012 17.2271C22.9321 19.0412 24.0184 23.1834 23.1017 26.0254Z" fill="white"/>
<path d="M22.0346 25.473C21.9935 25.2338 21.8977 24.9906 21.9196 24.7569C22.0797 23.0624 21.7336 21.4874 20.6048 20.2107C19.0916 18.4997 17.038 17.4112 14.1443 18.1602C12.9909 18.4622 11.9549 19.1062 11.1712 20.0084C10.3876 20.9105 9.89269 22.0289 9.75112 23.2177C9.61991 24.2202 9.73891 25.2397 10.0974 26.1845C10.4559 27.1292 11.0427 27.9697 11.8049 28.6301C12.5671 29.2905 13.4808 29.7501 14.4638 29.9676C15.4468 30.1852 16.4682 30.1538 17.4361 29.8763C17.81 29.7932 18.1935 29.7618 18.5758 29.7828C16.9532 30.8493 13.5902 30.8988 11.356 28.7878C8.99453 26.5559 8.58271 23.0157 10.3983 20.3454C11.2784 19.0604 12.5851 18.1321 14.0844 17.7264C15.5837 17.3207 17.1777 17.4643 18.5813 18.1313C21.7349 19.6348 22.8623 22.8425 22.1768 25.4386L22.0346 25.473Z" fill="#E94E48"/>
</svg>
