<svg width="35" height="33" viewBox="0 0 35 33" fill="none" xmlns="http://www.w3.org/2000/svg">
<path d="M17.2046 9.77302C17.2046 7.48683 17.2001 5.20014 17.191 2.91296C17.191 1.94226 17.2046 0.97157 17.2131 0.000875634C18.0337 0.000875634 18.8543 0.000875634 19.6731 0.000875634C20.1155 -0.0118573 20.5483 0.114631 20.8923 0.35715C21.2362 0.59967 21.4682 0.941972 21.5458 1.32132C21.7728 2.19766 21.993 3.07499 22.2063 3.95331C22.2236 4.07318 22.2779 4.18674 22.3633 4.28197C22.4487 4.37719 22.5621 4.45053 22.6915 4.49423C23.4564 4.78417 24.1812 5.14858 24.8519 5.58051C24.9472 5.64888 25.0623 5.69296 25.1846 5.70787C25.3069 5.72278 25.4316 5.70794 25.5448 5.66499C26.5356 5.38045 27.5304 5.1048 28.5291 4.83805C29.4603 4.58611 30.2877 4.86027 30.778 5.59237C31.8789 7.24033 32.9747 8.89125 34.0654 10.5451C34.6204 11.3884 34.4739 12.1145 33.6568 12.7681C32.8856 13.3846 32.1246 14.0041 31.3415 14.6132C31.2719 14.6615 31.2185 14.7253 31.1867 14.7977C31.155 14.8702 31.1461 14.9487 31.161 15.0251C31.2453 15.823 31.2402 16.626 31.1457 17.423C31.1348 17.5085 31.1517 17.5949 31.1944 17.6725C31.2372 17.75 31.304 17.8156 31.3875 17.8616C32.174 18.4811 32.9316 19.1287 33.7436 19.7215C34.4246 20.2239 34.5029 21.2524 34.1028 21.8467C32.9792 23.5109 31.8795 25.1885 30.7797 26.8646C30.5661 27.1922 30.2295 27.4456 29.8264 27.5825C29.4234 27.7193 28.9785 27.7312 28.5666 27.616C27.5451 27.3196 26.5237 27.0543 25.5022 26.7579C25.3997 26.721 25.2875 26.7094 25.1779 26.7243C25.0683 26.7392 24.9655 26.78 24.8808 26.8424C24.21 27.2741 23.4859 27.6395 22.7222 27.9317C22.5808 27.979 22.4571 28.0594 22.3649 28.164C22.2727 28.2686 22.2155 28.3933 22.1995 28.5245C22.0071 29.3558 21.779 30.1813 21.5815 31.0127C21.3977 31.7818 20.8801 32.2516 19.9932 32.4117C19.1743 32.4117 18.3572 32.4013 17.5383 32.4117C17.2557 32.4117 17.1808 32.3287 17.1808 32.0931C17.1887 29.0422 17.1887 25.9913 17.1808 22.9404C17.1808 22.7329 17.2302 22.6247 17.5008 22.6158C17.6942 22.5918 17.8841 22.5506 18.0678 22.4928C18.238 22.4617 18.4082 22.4424 18.5614 22.3995C23.0626 21.1946 25.1617 16.556 22.7988 13.0067C21.556 11.1379 19.6663 10.0709 17.2046 9.77302Z" fill="white"/>
<path d="M17.192 22.6979C17.192 24.9841 17.1966 27.2707 17.2056 29.5579C17.2056 30.5286 17.192 31.4993 17.1835 32.47C16.3629 32.47 15.5424 32.47 14.7235 32.47C14.2811 32.4827 13.8483 32.3563 13.5044 32.1137C13.1604 31.8712 12.9284 31.5289 12.8509 31.1496C12.6239 30.2732 12.4037 29.3959 12.1903 28.5176C12.173 28.3977 12.1188 28.2841 12.0333 28.1889C11.9479 28.0937 11.8345 28.0204 11.7051 27.9767C10.9402 27.6867 10.2155 27.3223 9.54476 26.8904C9.44947 26.822 9.3343 26.7779 9.21201 26.763C9.08971 26.7481 8.96507 26.7629 8.85187 26.8059C7.86107 27.0904 6.86628 27.3661 5.86753 27.6328C4.93631 27.8848 4.10894 27.6106 3.61864 26.8785C2.51775 25.2306 1.42196 23.5796 0.331276 21.9258C-0.223713 21.0825 -0.0773106 20.3563 0.739849 19.7028C1.51105 19.0863 2.27203 18.4668 3.05514 17.8577C3.12474 17.8093 3.17818 17.7456 3.20991 17.6732C3.24165 17.6007 3.25052 17.5222 3.2356 17.4457C3.15132 16.6479 3.15645 15.8449 3.25092 15.0479C3.26183 14.9624 3.24496 14.876 3.20222 14.7984C3.15949 14.7209 3.0926 14.6553 3.00918 14.6092C2.22266 13.9898 1.46508 13.3422 0.653025 12.7494C-0.0279427 12.247 -0.106251 11.2185 0.293818 10.6242C1.41741 8.95995 2.51718 7.28236 3.61694 5.60624C3.83053 5.27873 4.16716 5.02524 4.57022 4.8884C4.97328 4.75156 5.41818 4.73973 5.83008 4.85488C6.85153 5.15128 7.87298 5.41655 8.89443 5.71294C8.99694 5.74986 9.10914 5.76151 9.21874 5.74661C9.32834 5.73171 9.43112 5.69084 9.51581 5.62847C10.1867 5.19675 10.9107 4.83141 11.6745 4.53922C11.8159 4.4919 11.9395 4.41151 12.0317 4.30691C12.1239 4.2023 12.1812 4.07756 12.1971 3.94643C12.3895 3.11504 12.6176 2.28958 12.8151 1.45819C12.999 0.689049 13.5165 0.219261 14.4035 0.0592079C15.2223 0.0592079 16.0395 0.0695839 16.8583 0.0592079C17.1409 0.0592079 17.2159 0.1422 17.2159 0.377834C17.2079 3.42873 17.2079 6.47962 17.2159 9.53051C17.2159 9.73799 17.1665 9.84617 16.8958 9.85507C16.7025 9.87904 16.5125 9.92026 16.3289 9.97807C16.1586 10.0092 15.9884 10.0285 15.8352 10.0714C11.334 11.2763 9.23492 15.9149 11.5979 19.4642C12.8406 21.333 14.7303 22.4 17.192 22.6979Z" fill="#E8524E"/>
</svg>
