<svg width="30" height="63" viewBox="0 0 30 63" fill="none" xmlns="http://www.w3.org/2000/svg">
<path d="M9.42 9.17V11.12H20.55V9.17H9.42ZM1.95 25.82V27.71H28.08V25.82H1.95ZM3.75 1.97V3.86H12.63V1.97H3.75ZM11.91 1.97V2.39C10.05 7.16 5.19 11.36 0.78 13.22C1.23 13.61 1.83 14.39 2.13 14.87C6.9 12.65 11.91 8.36 14.16 2.6L12.72 1.85L12.3 1.97H11.91ZM16.98 0.89L15.09 1.52C17.64 7.22 22.23 12.11 27.54 14.51C27.9 13.91 28.53 13.1 29.07 12.65C23.88 10.64 19.29 5.99 16.98 0.89ZM2.94 6.2C4.5 7.16 6.3 8.66 7.2 9.71L8.46 8.33C7.59 7.25 5.73 5.87 4.14 4.97L2.94 6.2ZM23.01 1.07C21.81 2.39 19.68 4.22 18.15 5.33L19.53 6.41C21.09 5.36 23.16 3.74 24.72 2.27L23.01 1.07ZM26.37 4.61C25.11 5.96 22.89 7.79 21.27 8.87L22.65 9.95C24.3 8.93 26.46 7.31 28.05 5.81L26.37 4.61ZM8.88 15.44H21.03V19.4H8.88V15.44ZM6.66 13.58V21.26H23.34V13.58H6.66ZM8.4 21.74C9.21 23.06 9.96 24.89 10.26 26.06L12.39 25.4C12.09 24.23 11.31 22.46 10.47 21.17L8.4 21.74ZM19.56 21.08C19.08 22.4 18.12 24.35 17.37 25.52L19.29 26.09C20.04 24.92 20.94 23.27 21.75 21.68L19.56 21.08ZM26.79 47.97C25.95 49.29 24.39 51.12 23.28 52.26L24.72 53.25C25.89 52.17 27.36 50.58 28.56 49.11L26.79 47.97ZM13.38 49.47C14.64 50.7 16.02 52.44 16.59 53.58L18.24 52.5C17.61 51.33 16.2 49.68 14.91 48.48L13.38 49.47ZM14.31 36.03V37.92H24.24V46.08H26.34V36.03H14.31ZM14.91 40.5V42.33H25.44V40.5H14.91ZM12.75 44.94V46.92H28.8V44.94H12.75ZM19.5 45.87V60C19.5 60.36 19.41 60.45 19.08 60.45C18.72 60.45 17.7 60.48 16.56 60.42C16.83 61.02 17.1 61.86 17.19 62.43C18.84 62.43 19.95 62.4 20.67 62.07C21.42 61.74 21.6 61.14 21.6 60.06V45.87H19.5ZM12.12 58.47L13.17 60.33C14.94 59.13 17.01 57.63 18.93 56.16L18.24 54.42C15.99 55.98 13.68 57.54 12.12 58.47ZM21.51 47.22L20.22 48.72C21.15 52.41 23.34 57.84 27.87 60.6C28.2 60.03 28.89 59.16 29.34 58.74C24.72 56.31 22.41 51.21 21.51 47.22ZM3.24 42.24V44.19H11.79V42.24H3.24ZM1.62 47.37V49.35H12.6V47.37H1.62ZM2.31 51.33C2.88 53.16 3.36 55.5 3.39 57.06L5.07 56.64C4.95 55.08 4.47 52.77 3.87 50.94L2.31 51.33ZM1.35 59.4L1.8 61.5C4.8 60.87 8.79 59.97 12.66 59.16L12.48 57.24C8.4 58.08 4.17 58.92 1.35 59.4ZM10.65 50.67C10.38 52.26 9.84 54.63 9.39 56.1L10.86 56.52C11.37 55.11 11.88 52.95 12.39 51.12L10.65 50.67ZM6.33 42.96V59.64L8.31 59.31V42.96H6.33ZM6.24 34.83C5.22 37.23 3.3 40.29 0.57 42.57C0.99 42.87 1.65 43.53 1.98 43.98C4.95 41.37 6.9 38.19 8.07 35.88V35.31H7.41V34.83H6.24ZM6.6 34.83V36.42H7.02C8.76 37.92 10.8 40.41 11.82 41.94L13.32 40.23C12.27 38.73 10.05 36.42 8.28 34.83H6.6Z" fill="black"/>
</svg>
