<svg width="22" height="22" viewBox="0 0 22 22" fill="none" xmlns="http://www.w3.org/2000/svg">
<path d="M10.75 21.5C4.822 21.5 0 16.678 0 10.75C0 4.822 4.822 0 10.75 0C16.678 0 21.5 4.822 21.5 10.75C21.5 16.678 16.678 21.5 10.75 21.5ZM10.75 1.5C5.65 1.5 1.5 5.65 1.5 10.75C1.5 15.85 5.65 20 10.75 20C15.85 20 20 15.85 20 10.75C20 5.65 15.85 1.5 10.75 1.5Z" fill="#FF0000"/>
<path d="M10.75 15.865C8.85801 15.865 7.11701 14.915 6.09401 13.321C5.87001 12.973 5.97101 12.511 6.32001 12.286C6.66801 12.06 7.13201 12.162 7.35601 12.512C8.10301 13.674 9.37201 14.367 10.751 14.367C12.13 14.367 13.399 13.674 14.147 12.513C14.371 12.163 14.835 12.063 15.183 12.288C15.533 12.512 15.633 12.976 15.409 13.324C14.384 14.918 12.643 15.869 10.751 15.869L10.75 15.865Z" fill="#FF0000"/>
<path d="M13.488 9.68601C14.3043 9.68601 14.966 9.02429 14.966 8.20801C14.966 7.39173 14.3043 6.73001 13.488 6.73001C12.6717 6.73001 12.01 7.39173 12.01 8.20801C12.01 9.02429 12.6717 9.68601 13.488 9.68601Z" fill="#FF0000"/>
<path d="M8.012 9.68601C8.82827 9.68601 9.49 9.02429 9.49 8.20801C9.49 7.39173 8.82827 6.73001 8.012 6.73001C7.19572 6.73001 6.534 7.39173 6.534 8.20801C6.534 9.02429 7.19572 9.68601 8.012 9.68601Z" fill="#FF0000"/>
</svg>
