<svg width="22" height="20" viewBox="0 0 22 20" fill="none" xmlns="http://www.w3.org/2000/svg">
<path d="M17.75 8.48V6.78H13.35V13.18H15.05V11.18H17.05V9.48H15.05V8.48H17.75V8.48ZM10.45 6.78H12.15V13.18H10.45V6.78ZM6.85002 8.38C7.25002 8.38 7.75002 8.58 8.05002 8.88L9.25002 7.88C8.65002 7.18 7.75002 6.78 6.85002 6.78C5.05002 6.78 3.65002 8.18 3.65002 9.98C3.65002 11.78 5.05002 13.18 6.85002 13.18C7.85002 13.18 8.65002 12.78 9.25002 12.08V9.58H6.45002V10.78H7.65002V11.38C7.45002 11.48 7.15002 11.58 6.85002 11.58C5.95002 11.58 5.25002 10.88 5.25002 9.98C5.25002 9.18 5.95002 8.38 6.85002 8.38V8.38Z" fill="#FF0000"/>
<path d="M19.25 0H2.25C1.01 0 0 1.007 0 2.247V17.754C0 18.992 1.01 20 2.25 20H19.25C20.49 20 21.5 18.992 21.5 17.754V2.247C21.5 1.007 20.49 0 19.25 0V0ZM20 17.754C20 18.164 19.664 18.5 19.25 18.5H2.25C1.836 18.5 1.5 18.164 1.5 17.754V2.247C1.5 1.835 1.836 1.5 2.25 1.5H19.25C19.664 1.5 20 1.835 20 2.247V17.754Z" fill="#FF0000"/>
</svg>
