<svg width="50" height="50" viewBox="0 0 50 50" fill="none" xmlns="http://www.w3.org/2000/svg">
<path d="M14.0563 8.33333H21.2729C21.6688 8.33345 22.0499 8.48384 22.3392 8.75411C22.6284 9.02437 22.8043 9.39437 22.8313 9.78933C22.8583 10.1843 22.7344 10.5748 22.4845 10.8819C22.2347 11.189 21.8776 11.3898 21.4854 11.4437L21.2729 11.4583H14.0563C12.8688 11.4581 11.7256 11.9086 10.8575 12.7188C9.98932 13.5289 9.46099 14.6383 9.37919 15.8229L9.36877 16.1458V35.9375C9.36916 37.1249 9.82015 38.2679 10.6307 39.1357C11.4412 40.0034 12.5508 40.5312 13.7354 40.6125L14.0563 40.625H33.8479C35.0357 40.6251 36.1792 40.1744 37.0474 39.3638C37.9156 38.5532 38.4437 37.4433 38.525 36.2583L38.5354 35.9375V34.9C38.5314 34.5013 38.6799 34.1161 38.9506 33.8234C39.2213 33.5306 39.5936 33.3524 39.9914 33.3252C40.3892 33.2981 40.7824 33.424 41.0903 33.6773C41.3983 33.9305 41.5978 34.2919 41.6479 34.6875L41.6604 34.9V35.9375C41.6601 37.9371 40.893 39.8605 39.5171 41.3116C38.1413 42.7626 36.2614 43.6308 34.2646 43.7375L33.8479 43.75H14.0563C12.0559 43.7501 10.1317 42.983 8.6802 41.6067C7.22865 40.2303 6.36034 38.3496 6.25419 36.3521L6.24377 35.9354V16.1437C6.24413 14.1441 7.01122 12.2207 8.38708 10.7697C9.76294 9.31864 11.6428 8.45039 13.6396 8.34375L14.0563 8.33333H21.2729H14.0563ZM30.2084 13.5833V7.8125C30.2082 7.52509 30.2873 7.24321 30.4369 6.99785C30.5866 6.75249 30.801 6.55316 31.0567 6.42179C31.3123 6.29043 31.5992 6.23211 31.8858 6.25326C32.1725 6.27441 32.4477 6.3742 32.6813 6.54166L32.8521 6.68333L45.3396 18.6625C45.9229 19.2229 45.9771 20.1208 45.5 20.7417L45.3396 20.9187L32.8521 32.9021C32.6447 33.1012 32.3864 33.2393 32.1056 33.3011C31.8248 33.3629 31.5324 33.3461 31.2606 33.2524C30.9888 33.1587 30.7481 32.9918 30.565 32.7701C30.3819 32.5484 30.2635 32.2805 30.2229 31.9958L30.2084 31.7729V26.0958L29.4917 26.1583C24.4917 26.6792 19.7 28.9312 15.0875 32.95C14.0042 33.8937 12.3313 33.0021 12.5104 31.5792C13.8938 20.4958 19.6896 14.3896 29.5834 13.6229L30.2084 13.5812V7.8125V13.5833ZM33.3334 11.4729V15.1042C33.3334 15.5186 33.1687 15.916 32.8757 16.209C32.5827 16.502 32.1853 16.6667 31.7709 16.6667C23.7 16.6667 18.7 20.1583 16.5375 27.4104L16.3729 27.9896L17.1063 27.4958C21.7709 24.4521 26.6625 22.9167 31.7729 22.9167C32.1508 22.9167 32.5159 23.0538 32.8005 23.3024C33.0851 23.551 33.27 23.8943 33.3209 24.2687L33.3354 24.4792V28.1104L42 19.7917L33.3334 11.475V11.4729Z" fill="black"/>
</svg>
